<svg width="256" height="192" fill="none" xmlns="http://www.w3.org/2000/svg"><path fill-rule="evenodd" clip-rule="evenodd" d="M132.83 15.48c52.84 2.52 94.907 46.155 94.907 99.619 0 14.261-2.999 27.819-8.391 40.088H36.654c-5.392-12.269-8.391-25.827-8.391-40.088 0-35.679 18.738-66.976 46.906-84.603 2.11 14.485 14.58 25.61 29.65 25.61 16.549 0 29.966-13.416 29.966-29.965a29.88 29.88 0 0 0-1.955-10.661Z" fill="#EDE7B0"/><path fill-rule="evenodd" clip-rule="evenodd" d="M132.829 15.477c19.939.952 38.34 7.76 53.53 18.74a81.553 81.553 0 0 0-19.149 12.91 43 43 0 0 1-42.204 8.98 45.23 45.23 0 0 0-9.405-2.001c11.222-4.33 19.184-15.217 19.184-27.965 0-3.756-.694-7.35-1.956-10.664ZM98.866 55.514a45.173 45.173 0 0 0-24.013 16.34 47.34 47.34 0 0 1-19.215 15.03 54.617 54.617 0 0 1-24.48 4.294c6.276-25.495 22.356-47.128 44.011-60.682 1.824 12.526 11.396 22.539 23.698 25.018Z" fill="#F5F0BF"/><path fill-rule="evenodd" clip-rule="evenodd" d="M227.64 119.53a99.274 99.274 0 0 1-8.294 35.657H36.654a99.289 99.289 0 0 1-8.337-36.771 30.284 30.284 0 0 1 11.25 2.755 17.134 17.134 0 0 0 20.64-4.955c11.688-14.839 31.663-20.361 49.313-13.632a59.007 59.007 0 0 0 45.694-1.535 42.52 42.52 0 0 1 46.929 7.669 39.916 39.916 0 0 0 25.497 10.812Z" fill="#D9D186"/><path fill-rule="evenodd" clip-rule="evenodd" d="M174.319 86.776c.508 0 .961.122 1.355.349 3.047-7.234 8.607-12.7 13.29-12.7 3.733 0 5.914 3.47 5.966 8.541 1.219-.954 2.486-1.507 3.666-1.507 1.902 0 3.161 1.437 3.585 3.682 1.76-3.106 4.313-5.282 6.517-5.282 2.952 0 4.16 3.903 2.698 8.718-.015.052-.032.103-.048.155.253-.101.504-.155.746-.155 1.145 0 1.751 1.206 1.591 2.882l6.344.834h-59.93l8.336-1.015c1.653-2.673 3.915-4.502 5.884-4.502Zm-53.554-14.923-8.35-.848c.988-2.294.338-4.107-1.53-4.107-1.353 0-2.989.952-4.257 2.349-.532-1.599-1.843-2.584-3.816-2.584-2.023 0-4.355 1.037-6.479 2.709l-.192-.02c.73-3.888-.922-6.66-4.435-6.66-1.963 0-4.183.865-6.29 2.307-.258-4.302-2.84-7.127-7.319-7.127-3.834 0-8.282 2.07-12.26 5.364-.416-1.739-1.706-2.831-3.73-2.831-3.796 0-8.735 3.844-11.031 8.586-.31.641-.556 1.266-.74 1.866l-10.77.996h81.199Z" fill="#E7CAC9"/><path d="M128 176.523c61.443 0 111.252-9.553 111.252-21.336 0-11.784-49.809-21.336-111.252-21.336s-111.252 9.552-111.252 21.336c0 11.783 49.81 21.336 111.252 21.336Z" fill="#9EC93A"/><path d="M157.549 157.632c-3.661 0-6.982-1.559-7.417-3.483-.435-1.923 2.181-3.482 5.842-3.482 3.661 0 6.981 1.559 7.416 3.482.435 1.924-2.18 3.483-5.841 3.483Z" fill="#B0DB4B"/><path fill-rule="evenodd" clip-rule="evenodd" d="m145.217 112.83 3.922 6.631c2.58 10.909 8.295 21.529 16.515 30.686l4.664-11.455-6.803-21.17c.713-17.54-27.504-20.26-18.298-4.692ZM69.103 93.867l.004.001c.101.057.205.11.312.158 4.111 2.135 6.506 5.801 7.74 10.502.987-3.578 1.972-7.157 2.958-10.735-2.21-1.308-4.017-3.918-4.925-5.754a4.117 4.117 0 0 0-1.797-2.09c-1.504-.861-2.746-.597-4.02-1.648-2.335-1.923-2.79-4.536-5.765-5.46-.797-1.542-2.527-1.96-3.75-.906-1.919 1.651-3.051 1.915-4.97 3.566-.797.312-2.112 2.2-2.193 3.197-.151 1.862 1.826 1.422 2.94 2.186 3.33 1.866 6.376 1.364 9.706 3.23 1.304.73 1.992 2.343 3.12 3.303.205.174.418.324.64.45Z" fill="#E7CAC9"/><path fill-rule="evenodd" clip-rule="evenodd" d="m102.131 118.531-5.359-11.644c-3.488-7.579-12.177-10.665-19.155-15.238l-3.276 5.16 2.444 7.535a40.078 40.078 0 0 0 18.354 19.942l6.992-5.755Zm43.611-52.392 2.092-1.858a10.78 10.78 0 0 1 15.104.732 58.818 58.818 0 0 1 10.778 16.42c2.636 6.006.812 13.068-4.387 16.983-5.056 3.808-8.484 9.442-9.578 15.742l-17.061-10.414 3.052-37.605Z" fill="#E7CAC9"/><path fill-rule="evenodd" clip-rule="evenodd" d="m154.966 62.866-3.272-1.176a17.055 17.055 0 0 0-12.98.603c-4.061 1.905-7.141 5.332-8.526 9.487-2.387 7.154-6.283 13.75-11.443 19.372-4.76 5.185-4.375 13.098.867 17.828 5.242 4.731 13.429 4.553 18.446-.402L155.2 86.599l-.234-23.733Z" fill="#E7CAC9"/><path fill-rule="evenodd" clip-rule="evenodd" d="m146.4 67.931 2.078-1.858c4.381-3.92 11.005-3.596 15.003.732a58.848 58.848 0 0 1 10.705 16.42c2.619 6.006.807 13.068-4.357 16.983-5.022 3.808-8.427 9.442-9.514 15.742l-16.946-10.414 3.031-37.605Z" fill="#1B210D"/><path fill-rule="evenodd" clip-rule="evenodd" d="m154.247 64.493-3.122-1.16a15.783 15.783 0 0 0-20.515 9.95 53.534 53.534 0 0 1-10.916 19.103c-4.541 5.114-4.174 12.916.827 17.581 5.001 4.665 12.81 4.489 17.596-.396l16.353-21.674-.223-23.404Z" fill="#1B210D"/><path fill-rule="evenodd" clip-rule="evenodd" d="M68.323 94.35c4.305 2.271 6.79 6.098 8.056 10.965l2.958-10.623c-2.21-1.392-4.018-4.07-4.925-5.94-2.115 1.522-3.974 4.075-6.089 5.597Z" fill="#D97109"/><path fill-rule="evenodd" clip-rule="evenodd" d="M67.683 93.876c-1.128-1.004-1.817-2.642-3.12-3.422-3.33-1.991-6.376-1.605-9.706-3.597-1.115-.806-3.091-.44-2.94-2.297.08-.994 1.395-2.832 2.193-3.114 1.918-1.579 3.05-1.8 4.969-3.378 1.224-1.007 2.953-.524 3.75 1.047 2.976 1.038 3.43 3.667 5.765 5.68 1.275 1.098 2.517.88 4.02 1.8a4.348 4.348 0 0 1 1.606 5.7l-.2.391c-.594 1.161-1.595 1.91-2.877 2.15-1.281.24-2.486-.094-3.46-.96Z" fill="#F08418"/><path fill-rule="evenodd" clip-rule="evenodd" d="m100.58 121.73-4.055-12.159c-2.64-7.915-11.629-11.877-18.066-17.185l-3.82 4.772 2.295 7.703a40.08 40.08 0 0 0 16.067 21.826l7.579-4.957Z" fill="#D97109"/><path fill-rule="evenodd" clip-rule="evenodd" d="m100.067 120.193-3.542-10.622c-1.333-3.996-4.283-6.984-7.707-9.646a4.833 4.833 0 0 0-2.008.995c-4.459 3.702.585 17.526 8.38 19.283 1.634.368 3.298.353 4.877-.01Z" fill="#F08418"/><path fill-rule="evenodd" clip-rule="evenodd" d="m61.47 130.131 2.426-9.265c2.854-10.895 9.265-21.42 13.733-31.68 1.745-4.007 3.427-2.002 4.085.601a62.039 62.039 0 0 1 .921 26.191c-1.27 7.041-4.63 13.451-9.603 18.326l-11.563-4.173Z" fill="#F93"/><path fill-rule="evenodd" clip-rule="evenodd" d="M83.111 97.158c.8 6.26.644 12.614-.476 18.82-1.002 5.553-3.303 10.712-6.67 15.037l-5.709-4.779c7.924-.606 12.025-13.806 12.625-24.849l.23-4.23Z" fill="#F08418"/><path fill-rule="evenodd" clip-rule="evenodd" d="m113.764 119.861-5.634-1.538c-10.721-1.821-21.746 1.005-30.927 6.49-1.812 1.082-3.873 1.671-6.01 1.566-3.026-.15-5.768 1.615-6.854 4.413-2.85 7.339-.081 13.238 9.895 15.079 15.378 3.46 31.269 2.989 46.195-1.368l-6.665-24.642Z" fill="#E7CAC9"/><path d="M136.989 154.15c39.57 0 71.647-3.652 71.647-8.157s-32.077-8.157-71.647-8.157c-39.57 0-71.647 3.652-71.647 8.157s32.077 8.157 71.647 8.157Z" fill="#364513"/><path fill-rule="evenodd" clip-rule="evenodd" d="m144.718 112.18 3.55 6.631c1.968 10.909 7.088 21.528 14.794 30.686l5.306-11.455-5.615-21.17c1.697-17.54-26.368-20.26-18.035-4.692Z" fill="#F08418"/><path fill-rule="evenodd" clip-rule="evenodd" d="m113.712 122.612-5.629-1.834c-10.71-2.382-21.7.544-30.872 5.555-1.81.989-6.706-.145-8.84-.363-3.024-.307-5.763 1.317-6.848 4.061-2.847 7.197 2.731 14.191 12.697 16.554 15.362 4.266 31.238 4.624 46.149 1.041l-6.657-25.014Z" fill="#F93"/><path fill-rule="evenodd" clip-rule="evenodd" d="M61.149 136.41c1.322 4.64 6.133 8.53 13.071 10.175 14.944 4.15 30.374 4.601 44.929 1.324l-3.98-14.987-19.425 4.254c-3.852 6.89-27.78 7.028-34.595-.766Z" fill="#F08418"/><path d="M85.847 131.336c5.812-2.034 10.226-5.271 9.86-7.229-.367-1.958-5.376-1.895-11.188.14s-10.226 5.271-9.859 7.229c.367 1.958 5.376 1.895 11.188-.14Z" fill="#FFAA54"/><path fill-rule="evenodd" clip-rule="evenodd" d="m126.988 149.081-16.181-.562c-7.4-.258-14.042-4.637-16.945-11.174-6.343-14.28 9.805-29.111 25.091-23.785 10.482-2.882 18.737.068 25.12 10.647 3.344 5.543 3.181 12.335-.424 17.582-3.604 5.248-10.032 7.522-16.661 7.292Z" fill="#E7CAC9"/><path fill-rule="evenodd" clip-rule="evenodd" d="m77.768 89.061 1.149-4.408a33.867 33.867 0 0 0 1.053-10.125 3.306 3.306 0 0 1 2.491-3.376l4.024-2.078.51-.725a1.961 1.961 0 0 1 2.117-.758c.802.214 1.4.899 1.5 1.722a7.982 7.982 0 0 1-.135 2.722 5.334 5.334 0 0 0 .19 2.983c.708 1.96.159 4.133-1.386 5.484a3.948 3.948 0 0 0-1.34 3.12c.061 1.703.166 3.406.315 5.105a5.443 5.443 0 0 1-1.688 4.456 5.447 5.447 0 0 1-4.556 1.4c-2.659-.407-4.911-2.962-4.244-5.522Z" fill="#F93"/><path fill-rule="evenodd" clip-rule="evenodd" d="M89.534 80.264a5.014 5.014 0 0 1-.253.238 3.948 3.948 0 0 0-1.34 3.12c.061 1.703.167 3.406.316 5.105.035.405.026.807-.026 1.2a5.502 5.502 0 0 0-1.552-3.01 3.467 3.467 0 0 1-.093-4.826 6.143 6.143 0 0 1 2.1-1.468l.848-.359Z" fill="#F08418"/><path fill-rule="evenodd" clip-rule="evenodd" d="m127.223 151.65-16.181-.563c-7.4-.257-14.041-4.636-16.945-11.173-6.343-14.28 9.806-29.112 25.091-23.786 10.482-2.881 18.737.068 25.12 10.647 3.345 5.543 3.181 12.335-.423 17.583-3.605 5.247-10.033 7.522-16.662 7.292Z" fill="#364513"/><path fill-rule="evenodd" clip-rule="evenodd" d="M117.142 124.982c2.286-.071 5.443-.969 3.63-10.122-2.305-11.642 7.945-17.103 17.475-13.607 6.006 2.202 2.784.98 8.178-.038 4.716-.889 10.336 3.891 10.859 9.238.412 4.215-3.081 4.259-1.205 8.376 6.686 14.678-4.475 18.162-9.379 15.995-1.438 5.191-2.603 4.133-5.908 6.093-5.606 3.324-7.943 10.91-15.071 10.673-17.11-.571-21.992-26.192-8.579-26.608Z" fill="#E7CAC9"/><path fill-rule="evenodd" clip-rule="evenodd" d="M157.577 130.352c-1.851 4.899-7.687 5.882-10.877 4.472-1.438 5.191-2.603 4.133-5.908 6.093-5.606 3.324-7.943 10.911-15.071 10.673-6.695-.224-11.518-4.283-14.105-9.167a8.016 8.016 0 0 0 4.942-1.533c2.427-1.773 3.644-4.767 3.16-7.771l11.435-23.548.21 4.544a32.24 32.24 0 0 0 3.609 13.376 7.817 7.817 0 0 0 4.881 3.937 7.548 7.548 0 0 0 6.119-.958c1.543-1.013 3.548-1.036 5.152-.059 2.007 1.224 4.515 1.201 6.453-.059Z" fill="#E1EDC5"/><path fill-rule="evenodd" clip-rule="evenodd" d="m118.141 112.256-.451 6.675c-.786 11.627 1.689 22.937 7.152 32.682l6.78.258c8.657.329 21.313-.674 29.859-3.255l1.06-3.435-15.246-2.074c-5.2-2.387-7.752-2.999-14.173-3.721l-.291-22.559c10.741-16.153-13.441-23.057-14.69-4.571Z" fill="#F93"/><path fill-rule="evenodd" clip-rule="evenodd" d="M132.831 116.827c-.87 10.851-2.292 18.102-7.118 26.266l1.205-.818a21.5 21.5 0 0 1 6.204-2.889l-.291-22.559Z" fill="#F08418"/><path d="M121.638 119.423c2.14.081 4.722-3.584 5.765-8.186 1.044-4.603.154-8.4-1.986-8.481-2.141-.082-4.723 3.583-5.766 8.186-1.044 4.602-.154 8.399 1.987 8.481Z" fill="#FFAA54"/><path fill-rule="evenodd" clip-rule="evenodd" d="m160.867 124.626 30.922-2.888c1.036-.097 1.614.704 1.284 1.78l-7.559 24.663c-.329 1.076-1.447 2.035-2.483 2.132l-30.922 2.888c-1.036.097-1.614-.704-1.284-1.78l7.559-24.663c.33-1.076 1.447-2.035 2.483-2.132Z" fill="#364513"/><path d="M170.463 142.319c4.002-.374 7.911-2.848 8.732-5.526.821-2.678-1.758-4.546-5.76-4.172-4.001.374-7.911 2.848-8.732 5.526-.82 2.678 1.758 4.546 5.76 4.172Z" fill="#47591E"/><path fill-rule="evenodd" clip-rule="evenodd" d="m189.37 134.416-2.98.762c-.773.198-2.7.944-2.997 2.047-.452 1.674 1.028 4.015 1.644 5.211.622 1.208 1.572 1.963 2.691 2.141 1.294.205 2.729-1.029 3.409-2.93a60.689 60.689 0 0 0 1.594-5.182c.75-2.889-.692-4.024-2.549-4.7l-.812 2.651Zm-42.997-46.52c-2.548 5.685-5.624 9.211-10.38 12.697 2.521.424 4.289 4.779 6.877 9.202 2.733 4.669 5.334 7.327 6.291 12.029 6.533-3.007 3.772-16.061-.475-20.629.637-3.4 2.403-6.73 4.789-9.062l-7.102-4.236Z" fill="#F93"/><path fill-rule="evenodd" clip-rule="evenodd" d="M148.686 101.195c.563-3.003 2.006-5.95 3.978-8.204l-7.076-2.76a7.057 7.057 0 0 0 1.672 9.977l1.426.987Z" fill="#F08418"/><path fill-rule="evenodd" clip-rule="evenodd" d="M154.035 67.07c14.871 3.595 8.504 13.968 8.879 20.013.374 6.045-6.301 12.56-8.879 12.56-2.578 0-13.357-3.775-12.013-16.287 1.344-12.512 5.564-17.846 12.013-16.287Z" fill="#F93"/><path fill-rule="evenodd" clip-rule="evenodd" d="M163.915 76.22c.292 3.781-1.187 7.857-1.001 10.863.367 5.93-6.047 12.31-8.726 12.552.536-.65.896-1.414.896-2.141 0-1.544.103-3.34 1.533-4.26 1.138-.733 1.259-.757.96-2.077a10.993 10.993 0 0 1 .58-6.675 15.435 15.435 0 0 0 .877-9.085l-.877-4.235 3.656 1.263 2.102 3.795Z" fill="#F08418"/><path fill-rule="evenodd" clip-rule="evenodd" d="m157.035 73.729 1.189.966a16.903 16.903 0 0 1 6.244 13.155l5.24-4.626-8.176-16.419-5.352-1.476.855 8.4Z" fill="#1B210D"/><path fill-rule="evenodd" clip-rule="evenodd" d="m159.033 75.397-3.432 2.238a18.24 18.24 0 0 0-8.068 12.536 10.763 10.763 0 0 1-20.505 2.686l11.757-28.703 22.686.988-2.438 10.255Z" fill="#1B210D"/><path fill-rule="evenodd" clip-rule="evenodd" d="M156.79 84.482c-1.826-2.014-5.218-3.996-7.297-.758 3.265-1.175 4.465-.665 7.297.758Zm2.126 0c1.26-2.014 3.602-3.996 5.038-.758-2.255-1.175-3.083-.665-5.038.758Zm-9.978 2.318c-.019 2.1 2.262 3.467 4.406 2.011l-4.406-2.01Z" fill="#1B210D"/><path fill-rule="evenodd" clip-rule="evenodd" d="M155.419 87.347c-2.797 2.544-5.469 2.788-6.805-1.424 1.852 1.717 4.422 2.082 6.805 1.424Z" fill="#E7CAC9"/><path fill-rule="evenodd" clip-rule="evenodd" d="M148.702 85.94c2.613-2.007 5.172-2.793 7.16 1.3-2.265-.004-4.65-.463-7.16-1.3Z" fill="#F08418"/><path fill-rule="evenodd" clip-rule="evenodd" d="M147.736 85.515c2.251 2.25 5.416 3.017 8.444 1.667-1.781-.852-4.869-1.197-8.444-1.667Z" fill="#1B210D"/><path fill-rule="evenodd" clip-rule="evenodd" d="M153.839 87.526c-.056.541-.62 1.066-1.371 1.233-.85.189-1.617-.153-1.713-.764-.06-.383.158-.78.538-1.07l2.546.602Z" fill="#1B210D"/><path d="M151.044 88.15c.27 0 .488-.092.488-.205 0-.113-.218-.204-.488-.204-.269 0-.488.091-.488.204 0 .113.219.205.488.205Z" fill="#E7CAC9"/><path fill-rule="evenodd" clip-rule="evenodd" d="M162.26 86.997c-.413 2.066-1.913 3.31-2.771 1.783l2.771-1.783Z" fill="#1B210D"/><path fill-rule="evenodd" clip-rule="evenodd" d="M158.632 87.347c1.058 2.544 2.541 2.788 4.215-1.424-1.433 1.717-2.989 2.082-4.215 1.424Z" fill="#E7CAC9"/><path fill-rule="evenodd" clip-rule="evenodd" d="M162.793 85.94c-1.069-2.007-2.37-2.793-4.393 1.3 1.302-.004 2.771-.463 4.393-1.3Z" fill="#D97109"/><path fill-rule="evenodd" clip-rule="evenodd" d="M163.439 85.515c-1.777 2.25-3.761 3.017-5.209 1.667a23.361 23.361 0 0 1 5.209-1.667Z" fill="#1B210D"/><path fill-rule="evenodd" clip-rule="evenodd" d="M159.996 87.41c-.275.541-.249 1.066.088 1.233.381.189 1.015-.153 1.417-.764.251-.383.352-.78.298-1.07l-1.803.602Z" fill="#1B210D"/><path d="M159.858 88.52c-.154 0-.26-.092-.236-.205.025-.113.17-.204.324-.204.155 0 .261.091.237.204-.025.113-.17.204-.325.204Z" fill="#E7CAC9"/><path fill-rule="evenodd" clip-rule="evenodd" d="M153.103 94.655c1.354-.385 2.714-.496 3.988-.325a.448.448 0 0 1 .395.362c.039.197-.038.423-.204.595l-.212.4a2.676 2.676 0 0 1-1.622 1.308c-1.657.45-2.397-.956-2.345-2.34Z" fill="#1B210D"/><path fill-rule="evenodd" clip-rule="evenodd" d="M153.141 66.284c-8.74-3.461-18.068-1.195-19.344 9.085 4.654-6.935 10.317-11.542 19.344-9.085Zm13.897 7.729 2.832 4.013c3.312 4.693 4.23 10.725 2.47 16.226l-.218-4.021c-.313-5.762-2.25-10.918-5.084-16.218Z" fill="#404A29"/><path fill-rule="evenodd" clip-rule="evenodd" d="m168.229 81.135 1.694 3.953c1.98 4.621 1.36 9.476-1.669 13.06l.787-3.108c1.128-4.455.565-8.98-.812-13.905Zm-14.65-5.575c-4.688 1.67-9.327 6.526-8.082 14.97l.763-3.119c1.094-4.47 3.745-8.181 7.319-11.851Z" fill="#404A29"/><path fill-rule="evenodd" clip-rule="evenodd" d="m162.875 64.405 2.899 4.014a18.094 18.094 0 0 1 2.528 16.225l-.223-4.02c-.32-5.763-2.303-10.918-5.204-16.219Zm-30.598 10.873-1.875 4.812c-2.193 5.625-6.849 10.257-12.526 12.46l3.321-2.78c4.759-3.987 8.104-8.843 11.08-14.492Z" fill="#E7CAC9"/><path fill-rule="evenodd" clip-rule="evenodd" d="M139.136 81.28c3.219-7.64 7.04-11.491 15.05-10.724l-3.26 1.242c-4.671 1.78-8.315 5.136-11.79 9.482Zm-4.58 7.224c-3.223 7.638-7.046 11.487-15.056 10.715l3.261-1.24c4.671-1.777 8.318-5.131 11.795-9.475Z" fill="#404A29"/><path fill-rule="evenodd" clip-rule="evenodd" d="m137.942 89.945-2.221 2.671c-2.596 3.124-6.553 5.09-10.644 5.288l2.711-1.069c3.885-1.531 7.053-3.919 10.154-6.89Z" fill="#E7CAC9"/><path fill-rule="evenodd" clip-rule="evenodd" d="M135.34 78.55c4.605-9.043 9.614-13.238 19.888-10.615-7.999.311-12.408 2.47-19.888 10.615Zm10.684.295c-5.022 3.015-7.334 6.073-5.996 11.599l.542-2.404c.778-3.445 2.761-6.33 5.454-9.195Zm19.181-8.385c-3.215-4.138-5.467-5.743-7.54-3.503l1.309.074c1.876.105 3.93 1.435 6.231 3.429Zm.958 3.283c-2.63-3.385-4.473-4.698-6.169-2.865l1.071.06c1.535.086 3.215 1.174 5.098 2.805Z" fill="#404A29"/><path fill-rule="evenodd" clip-rule="evenodd" d="m136.963 74.85 2.221-2.67c2.596-3.124 6.553-5.09 10.645-5.289l-2.711 1.07c-3.886 1.53-7.054 3.918-10.155 6.89Z" fill="#E7CAC9"/><path fill-rule="evenodd" clip-rule="evenodd" d="m174.52 84.061.843 2.62c1.989 6.346.054 12.746-6.26 16.143 4.115-4.676 6.875-10.369 5.417-18.763Z" fill="#1B210D"/><path fill-rule="evenodd" clip-rule="evenodd" d="M233.265 162.107c-14.987 8.386-56.453 14.416-105.265 14.416-61.443 0-111.252-9.553-111.252-21.336 0-4.232 6.423-8.176 17.502-11.493-3.878 2.171-5.987 4.498-5.987 6.921 0 11.783 49.809 21.336 111.252 21.336 39.378 0 73.978-3.924 93.75-9.844Z" fill="#6E9610"/><path fill-rule="evenodd" clip-rule="evenodd" d="M87.48 155.912c9.499 5.315 35.778 9.136 66.712 9.136 38.94 0 70.507-6.054 70.507-13.521 0-2.682-4.071-5.181-11.092-7.284 2.458 1.376 3.794 2.851 3.794 4.386 0 7.468-31.567 13.522-70.506 13.522-24.956 0-46.884-2.487-59.414-6.239Z" fill="#B0DB4B"/><path d="M54.984 151.318c2.291-.326 4.149-1.236 4.149-2.032 0-.797-1.858-1.178-4.149-.852-2.291.326-4.148 1.236-4.148 2.033 0 .796 1.857 1.177 4.148.851ZM38.855 145.819c2.08-.296 3.768-1.009 3.768-1.592 0-.583-1.687-.816-3.768-.52-2.08.296-3.767 1.009-3.767 1.592 0 .583 1.686.816 3.767.52ZM228.805 154.861c1.66.18 3.006-.135 3.006-.703s-1.346-1.175-3.006-1.355c-1.66-.179-3.005.136-3.005.704s1.345 1.175 3.005 1.354ZM223.535 159.786c1.122.203 2.032-.153 2.032-.795s-.91-1.326-2.032-1.529c-1.123-.203-2.032.153-2.032.794 0 .642.909 1.327 2.032 1.53ZM206.604 153.493c1.122.187 2.032-.141 2.032-.734s-.91-1.226-2.032-1.413c-1.122-.187-2.032.141-2.032.734s.91 1.225 2.032 1.413Z" fill="#B0DB4B"/><path d="M199.553 76.337c1.356 0 2.865-1.8 3.37-4.022.504-2.22-.186-4.021-1.542-4.021s-2.864 1.8-3.369 4.021c-.505 2.221.185 4.022 1.541 4.022ZM195.306 76.795c.799 0 1.689-1.061 1.986-2.37.298-1.31-.109-2.371-.908-2.371-.8 0-1.689 1.061-1.987 2.37-.297 1.31.11 2.371.909 2.371ZM214.457 87.233c.799 0 1.688-1.062 1.986-2.371.297-1.31-.109-2.37-.909-2.37-.799 0-1.688 1.06-1.986 2.37-.298 1.31.109 2.37.909 2.37ZM66.955 60.242c.8 0 1.689-1.061 1.987-2.37.297-1.31-.11-2.371-.91-2.371-.798 0-1.688 1.061-1.985 2.37-.298 1.31.109 2.371.908 2.371ZM87.278 60.178c1.188 0 2.51-1.578 2.952-3.524.442-1.946-.162-3.524-1.35-3.524-1.189 0-2.51 1.578-2.953 3.524-.442 1.946.162 3.524 1.35 3.524ZM107.678 65.993c.4 0 .845-.531.994-1.186.148-.654-.055-1.185-.455-1.185-.399 0-.844.53-.993 1.185-.149.655.055 1.186.454 1.186Z" fill="#E7CAC9"/><path d="M101.163 85.274c1.188 0 2.51-1.578 2.953-3.524.442-1.946-.163-3.524-1.351-3.524s-2.51 1.578-2.953 3.524c-.442 1.946.163 3.524 1.351 3.524ZM209.02 109.784c2.13 0 4.499-2.827 5.292-6.316.793-3.488-.291-6.316-2.421-6.316-2.129 0-4.499 2.828-5.291 6.316-.793 3.489.291 6.316 2.42 6.316ZM179.467 59.446c1.065 0 2.25-1.414 2.646-3.158.397-1.744-.145-3.158-1.21-3.158s-2.25 1.414-2.646 3.158c-.396 1.744.145 3.158 1.21 3.158ZM52.176 110.932c1.065 0 2.25-1.414 2.646-3.158.396-1.744-.146-3.158-1.21-3.158-1.065 0-2.25 1.414-2.646 3.158-.397 1.744.145 3.158 1.21 3.158Z" fill="#F5F0BF"/><path d="M88.942 163.169c4.336-.98 7.85-3.715 7.85-6.109s-3.514-3.54-7.85-2.56c-4.335.981-7.85 3.716-7.85 6.11s3.515 3.54 7.85 2.559ZM74.927 159.529c2.087-.472 3.779-1.789 3.779-2.941 0-1.153-1.692-1.705-3.78-1.233-2.087.472-3.779 1.789-3.779 2.942 0 1.152 1.692 1.704 3.78 1.232ZM195.285 160.975c-3.571-.808-6.466-3.061-6.466-5.033 0-1.971 2.895-2.915 6.466-2.108 3.571.808 6.466 3.061 6.466 5.032 0 1.972-2.895 2.916-6.466 2.109ZM215.024 164.545c1.335.306 1.871-.23 1.196-1.196s-2.305-1.997-3.641-2.302c-1.335-.306-1.871.23-1.196 1.196s2.305 1.997 3.641 2.302Z" fill="#B0DB4B"/><path fill-rule="evenodd" clip-rule="evenodd" d="m150.431 36.241 4.847 4.699 11.324-3.598-10.985 1.248-5.186-2.349Zm-7.112 3.598 3.115 3.02 7.277-2.312-7.059.802-3.333-1.51Zm11.303 6.647 3.115 3.02 7.277-2.313-7.059.803-3.333-1.51Z" fill="#E7CAC9"/></svg>