<svg width="50" height="139" fill="none" xmlns="http://www.w3.org/2000/svg"><path d="M16.976 136.363a3.483 3.483 0 0 0 4.807-1.068c.351-.553.488-1.018.586-1.596.044-.256.075-.53.098-.839l.006-.084c.036-.53.052-1.189.052-1.987l-.002-.324-.002-.32c-.014-1.387-.07-3.135-.161-5.189l-.02-.42a496.92 496.92 0 0 0-.739-12.256 3.482 3.482 0 1 0-6.946.504l.062.868.047.664c.247 3.566.482 7.51.63 10.749l.033.764.022.546c.07 1.753.109 3.22.111 4.339v.202l-.001.247c-.004.478-.016.862-.035 1.139l-.007.094a3.485 3.485 0 0 0 1.459 3.967ZM31.416 131.959a3.483 3.483 0 0 0 4.808-1.068c.352-.553.488-1.018.587-1.596.043-.256.074-.53.097-.839l.006-.084c.036-.53.052-1.189.052-1.987l-.002-.324-.002-.32c-.014-1.387-.07-3.135-.161-5.189l-.02-.42a496.92 496.92 0 0 0-.739-12.256 3.482 3.482 0 1 0-6.946.504l.062.868.047.664c.247 3.566.482 7.51.63 10.749l.033.764.022.546c.07 1.753.109 3.22.111 4.339v.202l-.001.247c-.004.478-.016.862-.035 1.139l-.007.094a3.485 3.485 0 0 0 1.459 3.967Z" fill="#000"/><path d="m10.855 90.554 12.584 1.165v35.663h-9.115l-3.469-36.828Z" fill="#2B2B2B"/><path d="m14.339 127.28-.308-2.048h9.423v2.048h-9.115Z" fill="#1B1919"/><path d="M25.225 99.714c6.692 0 12.116-2.794 12.116-6.24s-5.424-6.24-12.116-6.24c-6.691 0-12.115 2.794-12.115 6.24s5.424 6.24 12.115 6.24Z" fill="#2B2B2B"/><path d="M25.4 91.802h12.896l-.103 35.817h-9.341L25.4 91.802Z" fill="#2B2B2B"/><path d="m28.677 127.587-.307-2.048h10.037v2.048h-9.73Z" fill="#1B1919"/><path d="M4.73 136.848c-.193-.476-.055-1.128.053-1.305.108-.178 13.186-.993 13.186-.993 2.171-.179 6.474-.923 6.771.36.368 1.588.351 1.946.1 3.175-.4.41-4.459.768-5.774.461 0-.717-.103-1.178-.103-1.178s-.733.465-1.594.666c-1.755.41-2.09.819-7.526.819-4.36-.409-4.683-.941-5.114-2.005Z" fill="#272727"/><path d="M18.874 129.943c1.09.014 2.754-.344 3.66-1.601.08-.111.243-.128.336-.029.816.877.287.378.615 1.887.323 1.489.596 1.276.92 2.659.223.957.948 3.191 0 3.191h-4.328c-1.024 0-2.407 1.189-5.816 1.523-5.66.555-7.043-.205-8.174-.563-2.57-.816-1.266-2.682 0-3.278 1.856-.873 4.514-1.53 5.867-2.253 1.053-.563 1.415-.738 1.956-1.331.69-.757.982-1.241 1.201-1.617.091-.157.339-.121.436.031.598.949 2.32 1.367 3.327 1.381Z" fill="#563D2A"/><path d="M14.483 129.374a.277.277 0 0 0-.323.417l.648.956-1.316-.376a.277.277 0 0 0-.301.428l.561.78-1.612-.327c-.271-.055-.447.279-.247.471l1.33 1.287a.278.278 0 0 0 .386-.399l-.649-.627 1.375.279a.277.277 0 0 0 .28-.434l-.508-.706 1.282.367a.277.277 0 0 0 .306-.422l-.6-.887 1.388.496c.18.064.37-.069.37-.261 0-.174-.077-.334-.219-.514l-.05-.062-.032-.038a4.057 4.057 0 0 0-.21-.221l-.224-.225-.069-.071a3.2 3.2 0 0 1-.095-.102 1.434 1.434 0 0 1-.227-.307l-.008-.019a.277.277 0 0 0-.507.225c.067.152.175.301.33.472l.054.06.047.049.079.081.112.113-1.351-.483Z" fill="#2C221B"/><path d="M6.638 135.798c.742.225 1.247.344 1.905.415.895.097 1.84.052 2.88-.166a.358.358 0 1 0-.148-.701c-.965.202-1.835.243-2.655.155-.604-.066-1.07-.176-1.774-.389a.358.358 0 1 0-.208.686Z" fill="#7C593E"/><path d="M14.041 132.759c1.003-.921 1.749-1.382 2.55-2.407.435 0 1.009.052 2.664.052 2.156 0 2.727-.922 3.68-1.998.724.461.351 1.434.852 2.766.402 1.065 1.154 2.663 1.154 4.609-.351.614-3.811.307-4.914.307-.25-1.229-2.206-2.253-3.077-2.509-.764-.225-1.655-.308-2.909-.82Z" fill="#423023"/><path d="M47.742 136.888c.193-.475.054-1.128-.054-1.305-.107-.177-13.186-.994-13.186-.994-2.17-.177-6.473-.922-6.77.361-.369 1.587-.352 1.946-.101 3.175.401.41 4.46.768 5.775.461 0-.717.102-1.178.102-1.178s.734.465 1.594.666c1.755.409 2.091.819 7.527.819 4.36-.41 4.683-.941 5.113-2.005Z" fill="#272727"/><path d="M33.598 129.983c-1.09.014-2.754-.344-3.661-1.601-.08-.111-.243-.128-.336-.029-.815.877-.287.378-.614 1.887-.324 1.489-.597 1.277-.92 2.659-.224.957-.949 3.191 0 3.191h4.328c1.023 0 2.406 1.189 5.816 1.523 5.66.555 7.043-.205 8.173-.563 2.571-.816 1.266-2.681 0-3.278-1.855-.873-4.514-1.529-5.867-2.253-1.053-.563-1.414-.738-1.955-1.331-.69-.756-.983-1.24-1.202-1.617-.09-.156-.339-.121-.435.032-.598.948-2.32 1.367-3.327 1.38Z" fill="#563D2A"/><path d="M36.777 131.107a.277.277 0 0 0 .305.422l1.282-.366-.508.706a.277.277 0 0 0 .28.434l1.375-.278-.648.626a.277.277 0 0 0 .385.399l1.33-1.286c.2-.192.025-.526-.247-.471l-1.612.326.561-.78a.277.277 0 0 0-.3-.428l-1.316.376.647-.956a.277.277 0 0 0-.323-.417l-1.35.482.112-.112.05-.052c.049-.05.09-.093.13-.138.154-.171.262-.32.33-.472a.278.278 0 0 0-.5-.241l-.007.016a1.363 1.363 0 0 1-.235.326l-.049.053-.054.057-.085.087-.25.25-.062.064c-.066.07-.104.114-.157.178-.157.192-.243.361-.243.544 0 .192.19.325.37.261l1.389-.496-.6.886Z" fill="#2C221B"/><path d="m45.626 135.153-.148.044-.153.044c-.546.157-.96.244-1.473.3-.82.088-1.69.047-2.656-.155a.358.358 0 1 0-.147.701c1.04.218 1.985.263 2.88.166.656-.07 1.16-.189 1.904-.414a.358.358 0 1 0-.207-.686Z" fill="#7C593E"/><path d="M38.43 132.799c-1.002-.922-1.748-1.382-2.55-2.407-.435 0-1.009.052-2.663.052-2.156 0-2.728-.922-3.68-1.998-.724.461-.352 1.434-.853 2.766-.401 1.065-1.153 2.663-1.153 4.609.35.614 3.81.307 4.914.307.25-1.229 2.206-2.253 3.076-2.509.764-.225 1.656-.308 2.91-.82Z" fill="#423023"/><path d="m9.755 88.151-.017-.07a9.818 9.818 0 0 1-.18-1.31l-.01-.142-.01-.145c-.1-1.516-.06-3.562.114-6.011.31-4.366 1.026-9.8 1.837-14.523a3.79 3.79 0 1 0-7.47-1.282l-.08.467c-.816 4.838-1.527 10.3-1.847 14.802l-.019.28-.019.282c-.175 2.714-.201 5.025-.05 6.888.1 1.218.275 2.267.558 3.176.436 1.399 1.126 2.539 2.329 3.325a3.79 3.79 0 0 0 4.864-5.737ZM36.717 64.637c1.82 3.228 3.032 8.191 3.447 13.64.353 4.628.052 9.055-.588 10.885l-.02.055a3.79 3.79 0 0 0 7.124 2.59c1.094-3.009 1.472-8.452 1.041-14.106-.492-6.46-1.952-12.443-4.403-16.787a3.79 3.79 0 1 0-6.601 3.723Z" fill="#EBBAAA"/><path d="M7.477 55.945c0-2.407 5.274-4.863 8.961-6.031l4.814-1.597c.67-.021 5.276.17 5.94.262l7.477 2.503c3.543.49 6.45 2.38 6.094 5.939l-1.276 15.29.354 20.147c.007.185-8.213-2.142-8.399-2.151l-14.338 2.486-7.63-.343c-.179-.01-.271-.53-.256-.71l1.025-21.315-2.766-14.48Z" fill="#EBBAAA"/><path d="M41.798 53.537c-.83-.942-3.562-1.894-4.825-2.252.797 12.076.884 35.56 1.172 36.789.361 1.535 9.019 3.121 9.74 2.507.722-.614 1.533-6.396 1.353-9.568-.18-3.172-6.403-26.3-7.44-27.476Z" fill="#322B1F"/><path d="M47.793 90.614c.45-.082 1.485-3.004 1.843-4.148L37.04 84.469c-.154 1.041-.44 3.298-.359 3.994.103.87 2.458 1.639 5.019 2.049 2.56.41 5.53.204 6.094.102Z" fill="#3F3627"/><path d="M7.16 53.127c.883-.942 3.788-1.893 5.13-2.251-.847 12.076-2.617 36.535-2.924 37.763-.383 1.535-6.55 2.487-7.318 1.873-.767-.614-1.63-6.397-1.438-9.57.192-3.172 5.448-26.638 6.55-27.815Z" fill="#322B1F"/><path d="M1.805 90.882C1.364 90.8.351 87.897 0 86.76l12.335-1.984c.15 1.035.431 3.277.35 3.969-.1.865-2.406 1.628-4.913 2.035-2.507.407-5.415.204-5.967.102Z" fill="#3F3627"/><path d="m19.87 48.846.358-.256 5.325 1.69 2.51-1.588.973.41 1.024 3.226-5.992 1.331-4.813-1.638.614-3.175Z" fill="#EBBAAA"/><path d="M23.125 57.677c-.493-1.483-.247-3.632-.247-3.632l-2.217.87L18 49.545c-3.071.562-3.203.766-5.42 1.79-2.645 1.22-2.119 5.32-2.513 10.895l-.542 30.536 7.292 1.177 4.878.05 2.168-34.628s-.246-.205-.738-1.688Z" fill="#E5EBF9"/><path d="M24.73 57.626c-1.226-1.074-1.021-1.926-.802-2.762l.519-.409 3.017-.307 2.923-4.297s4.195.614 5.61 1.433c1.413.818 2.262 9.77 2.262 9.77l.66 31.866h-7.374l-8.324-1.487c-.125-10.707-1.222-31.212 0-31.914 1.603-.92 1.792-1.645 1.509-1.893Z" fill="#DAE2F3"/><path d="M28.063 57.533a.512.512 0 1 0 0-1.024.512.512 0 0 0 0 1.024Z" fill="#DAE2F3"/><path d="M20.177 57.02a.512.512 0 1 0 0-1.024.512.512 0 0 0 0 1.025Z" fill="#E5EBF9"/><path d="M24.324 62.142a.768.768 0 1 0 0-1.537.768.768 0 0 0 0 1.537Z" fill="#EDF2FF"/><path d="M46.973 89.692a.768.768 0 1 0 0-1.536.768.768 0 0 0 0 1.536ZM3.021 89.795a.768.768 0 1 0 0-1.537.768.768 0 0 0 0 1.537Z" fill="#332918"/><path d="M23.71 69.516c.424 0 .768-.367.768-.82 0-.452-.344-.819-.768-.819-.424 0-.768.367-.768.82 0 .452.344.819.768.819ZM23.3 76.787a.768.768 0 1 0 0-1.536.768.768 0 0 0 0 1.536Z" fill="#EDF2FF"/><path d="M28.37 51.132c.352-1.165 0-1.997-.103-2.51l2.868 1.076s.973 1.229.359 4.045c-.674 3.086-3.65 4.302-4.353 5.121-.307.359-.205-3.994-2.56-4.455 1.075-.256 3.123-1.075 3.789-3.277Z" fill="#E5EBF9"/><path d="M20.182 51.849c-.723-1.025-.348-2.461 0-3.227l-2.515.87s-1.446 2.49-.664 4.897c.971 2.99 4.433 4.07 4.402 3.707-.307-3.707.921-3.57 1.434-4.045-.87-.205-1.697-.841-2.657-2.202Z" fill="#DAE2F3"/><path d="M22.192 62.632c-.74-3.154-1.312-8.814-3.215-13.497 0 0-1.976.204-3.858.705-1.883.5-4.1 1.41-4.1 1.41-1.2 1.845-1.097 6.865-1.436 17.425-.338 10.56-.935 21.131-1.287 25.886 1.48.479 11.116 2.672 15.98.97 0-1.23.428-2.402.48-3.79.165-4.535-.4-8.852-.48-16.512-.072-6.76-.995-7.964-2.084-12.597Z" fill="#483E2D"/><path d="m13.622 51.348 5.325-2.418c.82 2.418 1.653 5.205 2.56 8.15 1.025 3.323 2.766 9.573 2.766 21.756L13.622 58.799l3.482-3.826-3.482 1.41v-5.035Z" fill="#5A4D37"/><path d="M28.755 63.87c0-3.1.223-10.35 2.114-14.838l5.332 1.09c1.431.293 2.655 1.194 2.766 2.65.236 3.07-.274 8.683-.022 16.285.337 10.117.648 20.677.998 25.232-2.968 1.192-9.802 2.923-14.635 1.292 0-1.06-.358-1.69-.819-3.676-.02-3.562-.272-7.44-.204-13.61.07-6.475 4.47-11.324 4.47-14.424Z" fill="#483E2D"/><path d="m35.027 50.816-4.301-1.784c-.547 1.982-1.858 6.12-2.766 9.02-1.024 3.27-3.277 6.64-3.277 18.633L35.027 58.35l-3.482-3.766 3.482 1.387v-5.154Z" fill="#5A4D37"/><path d="M22.993 82.83a.87.87 0 1 0 0-1.741.87.87 0 0 0 0 1.741ZM22.993 89.487a.87.87 0 1 0 0-1.74.87.87 0 0 0 0 1.74Z" fill="#332918"/><path d="M24.362 42.58h-.257a3.883 3.883 0 0 0-3.883 3.882v4.375a3.883 3.883 0 0 0 3.883 3.883h.257a3.883 3.883 0 0 0 3.883-3.883v-4.375a3.883 3.883 0 0 0-3.883-3.882ZM38.844 35.772a6.07 6.07 0 1 0 0-12.14 6.07 6.07 0 0 0 0 12.14ZM10.27 36.08a6.07 6.07 0 1 1-.001-12.14 6.07 6.07 0 0 1 0 12.14Z" fill="#EBBAAA"/><path d="M8.398 18.46c0-8.683 7.039-15.721 15.722-15.721 8.682 0 15.72 7.038 15.72 15.721v7.425l-.252 8.15c-.258 8.357-7.108 14.997-15.468 14.997-8.078 0-14.753-6.302-15.217-14.366l-.505-8.78V18.46Z" fill="#F4D4C9"/><path d="M20.92 40.094c2.006 1.115 4.374 1.086 6.93.04a.789.789 0 1 0-.598-1.46c-2.143.878-4.02.9-5.566.041a.789.789 0 0 0-.766 1.379Z" fill="#C99584"/><path d="M29.343 27.729v1.843a1.229 1.229 0 1 0 2.458 0V27.73a1.229 1.229 0 1 0-2.458 0ZM16.131 27.729v1.843a1.229 1.229 0 1 0 2.458 0V27.73a1.229 1.229 0 0 0-2.458 0Z" fill="#000"/><path d="m29.075 22.981 5.865-.256a1.23 1.23 0 0 0-.108-2.456l-5.864.257a1.23 1.23 0 0 0 .107 2.455ZM19.763 20.521l-5.87-.051a1.23 1.23 0 0 0-.021 2.458l5.87.051a1.23 1.23 0 0 0 .02-2.458Z" fill="#393939"/><path d="M23.22 30.475c-.622 1.097-.984 2.296-.937 3.274.064 1.344.907 2.248 2.328 2.248v-1.741c-.444 0-.567-.132-.59-.59-.028-.607.241-1.499.714-2.333l-1.515-.858Z" fill="#EBBAAA"/><path d="M25.359 27.437a2.048 2.048 0 0 1 1.865-2.575l7.238-.401a2.048 2.048 0 0 1 2.138 2.352l-.423 2.793a2.049 2.049 0 0 1-1.912 1.738l-6.084.338a2.048 2.048 0 0 1-2.092-1.516l-.73-2.729Z" fill="#fff" fill-opacity=".29"/><path d="M24.946 28.27a.615.615 0 0 0 1.207-.236l-1.207.235Zm.374-1.292.604-.117-.005-.022-.006-.022-.593.161Zm1.497-1.926-.012-.614h-.028l-.028.004.069.61Zm8.039-.165.063-.61-.038-.005h-.038l.013.615Zm1.62 1.606.61.075.001-.006v-.005l-.61-.064Zm-.785 1.364a.614.614 0 1 0 1.22.148l-1.22-.148Zm-9.538.177-.23-1.173-1.206.235.23 1.173 1.206-.235Zm-.24-1.217c.002.005-.015-.078.014-.216.028-.126.093-.288.24-.454l-.924-.812c-.585.666-.621 1.415-.515 1.805l1.185-.323Zm.253-.67c.169-.191.34-.314.48-.388.149-.08.241-.096.24-.096l-.137-1.221c-.349.039-.97.285-1.505.893l.922.812Zm.664-.48 8.038-.165-.025-1.23-8.038.166.025 1.229Zm7.962-.168c.076.008.242.041.418.117a.992.992 0 0 1 .399.283l.978-.743c-.254-.335-.6-.543-.89-.668a2.792 2.792 0 0 0-.778-.212l-.127 1.223Zm.817.4c.126.167.192.312.225.415.037.114.027.156.031.115l1.223.128c.033-.324-.09-.861-.5-1.4l-.98.742Zm.258.52-.176 1.438 1.22.148.175-1.438-1.22-.148Z" fill="#000"/><path d="M11.56 26.715a2.048 2.048 0 0 1 2.18-2.314l7.23.529a2.048 2.048 0 0 1 1.819 2.607l-.778 2.716a2.048 2.048 0 0 1-2.119 1.479l-6.077-.445a2.048 2.048 0 0 1-1.88-1.771l-.375-2.8Z" fill="#fff" fill-opacity=".29"/><path d="M11.167 28.07a.614.614 0 1 0 1.213-.196l-1.213.196Zm.416-1.278.607-.098-.004-.022-.005-.022-.598.142Zm1.559-1.877.007-.614h-.028l-.027.002.048.612Zm8.04.097.083-.61-.038-.005h-.039l-.007.615Zm1.567 1.657.607.094.001-.005v-.005l-.608-.084Zm-.83 1.337a.615.615 0 0 0 1.215.189l-1.214-.189Zm-9.539-.132-.19-1.18-1.214.196.191 1.18 1.213-.196Zm-.2-1.224c.002.005-.013-.08.022-.215.031-.126.102-.285.253-.447l-.896-.84c-.607.645-.667 1.393-.574 1.786l1.196-.284Zm.275-.662a1.74 1.74 0 0 1 .493-.372c.15-.075.244-.088.242-.088l-.096-1.225c-.35.027-.98.254-1.535.844l.896.841Zm.68-.458 8.039.096.014-1.229-8.039-.096-.014 1.229Zm7.963.09c.076.01.24.05.413.131.175.082.311.185.39.296l1.002-.71c-.243-.344-.582-.563-.868-.698a2.788 2.788 0 0 0-.77-.236l-.168 1.217Zm.803.427c.12.17.182.318.212.422.033.116.021.157.027.116l1.218.168c.044-.323-.063-.864-.455-1.417l-1.002.711Zm.24.528-.221 1.431 1.214.189.222-1.432-1.214-.188Z" fill="#000"/><path d="M22.686 27.268c.444-.24 1.587-.574 2.611 0" stroke="#000" stroke-width="10"/><path d="M35.334 13.134c-.317-2.664-.604-4.577-.815-6.353-.15-1.259-.166-1.58 3.41 1.057 3.578 2.636 4.114 8.42 3.14 13.336l-1.484 5.838-1.105-.273.44-7.408c-1.803-1.814-3.268-3.532-3.586-6.197ZM10.326 15.976c.148-2.679-.154-2.54-.055-4.327.07-1.265.505-.988-1.753 1.332-1.246 1.28-.777 6.78-.512 10.378l.316 3.315.503.028.228-4.124c.89-2.858 1.126-3.923 1.273-6.602Z" fill="#6E6C6C"/><path fill-rule="evenodd" clip-rule="evenodd" d="M24.648.597h-.045c-4.83.016-16.395 2.695-16.83 15.228 1.284-1.544 3.268-2.217 5.03-3.225 3.708-2.12 6.736-2.897 10.754-2.897 3.453 0 7.688.781 10.548 2.151 2.559 1.225 4.827 2.145 7.328 3.97C41 3.293 29.478.615 24.648.598Z" fill="#272727"/><path d="m12.072 4.39-.991 3.521 13.067-2.024 14.933 2.73-.031-1.449-1.066-.442-.025-1.139-1.342.03-.038-1.76-1.727.037-.413-1.337-1.535.034-.94-1.326-1.573.449-.498-.818-1.63.035L28.241 0l-2.186.98-.596-.92-.938.953-.98-.91-1.802.97-1.171-.906-1.227.958-.863.02-.941.848-.402-.82-1.592 1.795-1.064-.39-1.347 2.047-1.06-.235Z" fill="#272727"/><mask id="mask0_0_178" style="mask-type:luminance" maskUnits="userSpaceOnUse" x="9" y="2" width="30" height="10"><path d="M11.003 6.865 9.667 4.35l13.412 1.017 14.933-2.73-.031 1.449-1.065.443-.025 1.138-1.343-.03-.038 1.76-1.727-.037-.413 1.337-1.534-.034-.94 1.326-1.574-.448-.498.817-1.63-.035-.02.931-2.186-.98-.596.92-.94-.953-.979.911-1.802-.971-1.17.906-1.228-.958-.863-.019-.94-.849-.403.82-1.592-1.795-1.064.391-1.347-2.048-1.06.236Z" fill="#272727"/></mask><g mask="url('#mask0_0_178')"><path d="M33.913 5.504h-15.99V16.37h15.99V5.504Z" fill="#272727"/></g></svg>