<svg width="196" height="196" fill="none" xmlns="http://www.w3.org/2000/svg"><path d="M187.833 193.278H9.619A2.184 2.184 0 0 1 7.44 191.1v-8.53c0-1.197.98-2.177 2.178-2.177h178.214c1.198 0 2.178.98 2.178 2.177v8.53c0 1.198-.98 2.178-2.178 2.178Z" fill="#F7F7F7"/><path d="M100.178 183.478c33.476 0 60.615-27.138 60.615-60.615 0-33.477-27.139-60.615-60.615-60.615-33.477 0-60.615 27.138-60.615 60.615 0 33.477 27.138 60.615 60.615 60.615Z" fill="#F3FAFF"/><path d="M175.311 165.674c1.289-3.284 2.595-6.932 1.379-10.235-.29-.799-.744-1.652-.471-2.468.362-1.107 1.814-1.488 2.286-2.541.545-1.161-.308-2.504-.091-3.757.218-1.27 1.47-2.105 2.686-2.559 1.216-.453 2.541-.744 3.521-1.578 1.869-1.634 1.652-4.556 1.234-7.024-.417-2.45-.726-5.353 1.071-7.078-3.303.636-6.679 1.289-9.546 3.031-2.867 1.742-5.154 4.828-4.991 8.185.091 1.688.744 3.484-.018 4.973-.835 1.615-3.067 2.25-3.63 3.974-.653 1.978 1.289 3.793 2.051 5.735.726 1.833.381 3.884.545 5.825.163 1.96 1.179 4.174 3.121 4.465l.853 1.052Z" fill="#FFBE55"/><path opacity=".31" d="M175.311 165.674c1.289-3.284 2.595-6.932 1.379-10.235-.29-.799-.744-1.652-.471-2.468.362-1.107 1.814-1.488 2.286-2.541.545-1.161-.308-2.504-.091-3.757.218-1.27 1.47-2.105 2.686-2.559 1.216-.453 2.541-.744 3.521-1.578 1.869-1.634 1.652-4.556 1.234-7.024-.417-2.45-.726-5.353 1.071-7.078-3.303.636-6.679 1.289-9.546 3.031-2.867 1.742-5.154 4.828-4.991 8.185.091 1.688.744 3.484-.018 4.973-.835 1.615-3.067 2.25-3.63 3.974-.653 1.978 1.289 3.793 2.051 5.735.726 1.833.381 3.884.545 5.825.163 1.96 1.179 4.174 3.121 4.465l.853 1.052Z" fill="#fff"/><path d="M173.986 161.373c-.036-9.546 1.815-29.527 12.831-32.866" stroke="#fff" stroke-width=".75" stroke-miterlimit="10" stroke-linecap="round"/><path d="M167.634 164.876c-1.96-3.666-3.992-7.749-3.03-11.796.236-.98.635-2.033.217-2.959-.562-1.234-2.322-1.506-3.03-2.667-.781-1.271.018-2.977-.418-4.41-.435-1.47-2.014-2.251-3.484-2.632-1.47-.363-3.067-.508-4.338-1.379-2.413-1.652-2.558-5.118-2.413-8.04.145-2.922.109-6.37-2.232-8.13 3.956.29 8.003.599 11.596 2.25 3.594 1.652 6.715 4.955 6.969 8.911.127 1.978-.399 4.174.708 5.826 1.198 1.778 3.902 2.214 4.809 4.156 1.035 2.232-.98 4.609-1.615 6.987-.581 2.232.091 4.591.163 6.896.073 2.305-.816 5.045-3.049 5.662l-.853 1.325Z" fill="#FFBE55"/><path d="M168.596 159.649c-1.27-11.197-6.17-34.336-19.545-36.713" stroke="#fff" stroke-width=".75" stroke-miterlimit="10" stroke-linecap="round"/><path d="M180.03 186.381h-17.241a2.184 2.184 0 0 1-2.178-2.177l-1.452-24.863c0-1.198.98-2.178 2.178-2.178h20.144c1.198 0 2.178.98 2.178 2.178l-1.452 24.863c0 1.197-.98 2.177-2.177 2.177Z" fill="#CCE9FF"/><path d="m23.692 107.42 11.124-1.687 7.564 49.881-11.125 1.687-7.563-49.881Z" fill="#FFBE55"/><path d="m29.25 106.581 5.562-.843 7.564 49.881-5.562.844-7.564-49.882Z" fill="#FFBE55"/><path d="m34.826 105.786-11.125 1.687 2.614-6.696 1.488-3.775 2.54 3.176 4.483 5.608Z" fill="#FFEBC2"/><path d="m30.344 100.178-4.03.599 1.489-3.775 2.54 3.176Z" fill="#0E538C"/><path d="m43.758 94.313 11.207 1.003-4.5 50.25-11.207-1.003 4.5-50.25Z" fill="#FFBE55"/><path d="m49.372 94.818 5.603.502-4.5 50.25-5.603-.502 4.5-50.25Z" fill="#FFBE55"/><path d="m54.97 95.368-11.215-.998 4.138-5.88 2.341-3.32 1.706 3.683 3.03 6.516Z" fill="#FFEBC2"/><path d="m51.94 88.853-4.047-.363 2.341-3.32 1.706 3.683Z" fill="#0E538C"/><path d="M62.339 186.563H18.13l-5.79-68.419h53.538l-3.54 68.419Z" fill="#CCE9FF"/><path opacity=".5" d="M39.11 186.563h23.229l3.539-68.419H39.109v68.419Z" fill="#CCE9FF"/><path d="M48.819 167.253h112.337v15.444H48.818v-15.444Z" fill="#FFEBC2"/><path d="M49.29 167.253v15.444h117.854v1.162c0 1.434-1.252 2.595-2.794 2.595H49.798c-3.647 0-6.605-2.722-6.605-6.098V170.03c0-3.376 2.958-6.098 6.605-6.098H164.35c1.542 0 2.794 1.162 2.794 2.595v.745H49.29v-.019Z" fill="#FFBE55"/><path d="M48.819 174.131h112.337v8.548H48.818v-8.548Z" fill="#FFEBC2"/><path d="M63.337 148.452h91.285v13.429H63.337v-13.429Z" fill="#CCE9FF"/><path d="M63.337 148.452v13.429h94.733v1.017a2.25 2.25 0 0 1-2.25 2.25H63.736a5.305 5.305 0 0 1-5.299-5.299v-8.983c0-2.922 2.377-5.3 5.3-5.3h92.083a2.262 2.262 0 0 1 2.25 2.251v.653H63.337v-.018Z" fill="#2A94F4"/><path d="M102.791 102.737c-1.252-1.652-1.361-3.92-.181-5.644.943-1.38 1.579-3.086 1.506-4.338-.145-2.25-1.543-4.32-3.448-5.553-2.505-1.633-5.844-1.87-8.548-.599-2.704 1.27-4.664 3.993-5.009 6.95-.254 2.124.236 4.447-.853 6.298-.798 1.325-2.268 2.105-3.72 2.632-1.47.508-3.013.853-4.356 1.633s-2.486 2.123-2.468 3.684c.018 1.18.69 2.269.762 3.43.11 1.706-1.089 3.212-2.359 4.337-1.288 1.126-2.758 2.106-3.63 3.576-1.433 2.431-.762 5.716 1.053 7.894s4.537 3.394 7.26 4.102c7.44 1.96 15.28.689 22.957.562 2.377-.036 4.809.036 7.114-.562 2.305-.599 4.555-1.979 5.517-4.156.98-2.178.49-4.828-.817-6.806-1.307-1.978-3.357-3.412-5.517-4.428-1.561-.744-3.23-1.325-4.501-2.486-1.27-1.162-2.014-3.14-1.161-4.646.327-.581.871-1.035 1.179-1.616.618-1.125.363-2.558-.326-3.647a15.822 15.822 0 0 0-.454-.617Z" fill="#0E538C"/><path d="M63.337 154.441h91.285v7.44H63.337v-7.44Z" fill="#CCE9FF"/><path d="m104.533 135.385 11.252 7.985 13.793 28.493h-2.541l-15.426-25.226s-5.263.182-7.078-1.452c-1.814-1.633-12.25-8.711-12.25-8.711l12.25-1.089Z" fill="#0B4870"/><path d="M84.625 133.099c-2.05 5.553-.6 13.357 6.297 13.72 6.897.362 9.074 0 9.074 0l13.43 27.222h3.085l-10.526-30.489-12.794-7.078-8.566-3.375Z" fill="#0E538C"/><path d="M95.096 101.448c1.815 2.359 6.171 8.893 7.804 16.152s6.17 17.785 6.17 17.785h-5.263l-5.081-17.241-4.719-16.151 1.09-.545Z" fill="#4EA3FB"/><path d="M100.686 91.811c.272 4.447-1.67 7.496-4.446 7.64-2.777.146-4.592-3.883-3.757-7.64 1.942-3.339 4.591-3.611 4.591-3.611h1.67l1.942 3.611Z" fill="#FFE3CA"/><path d="M98.835 89.162a6.422 6.422 0 0 1-3.085 3.666 6.413 6.413 0 0 1-4.773.472l3.956-5.644h3.394l3.248 2.577-.49 2.958c-1.27-.962-2.25-4.03-2.25-4.03Z" fill="#0E538C"/><path d="M95.405 98.925c-.58 2.251-.4 4.61-.4 4.973-.544.726-3.085.545-3.448-1.996.545-3.267 1.634-6.896 1.634-6.896l.907 1.996 1.307 1.924Z" fill="#FFE3CA"/><path d="M91.92 99.978c-2.268.744-9.89 4.192-10.253 4.918.544 1.997 3.266 31.578 3.266 31.578h12.341s-1.633-16.333-.726-17.422c.908-1.089 3.811-4.9 3.448-5.445-.363-.544-4.972-12.25-4.972-12.25l-3.104-1.379Z" fill="#2A94F4"/><path d="M81.667 104.896c-1.779 1.361-9.256 13.611-6.897 20.145 2.36 6.533 10.073 10.38 10.073 10.38v-3.593s-6.261-4.972-5.899-8.602c.363-3.63 4.719-11.07 4.719-11.07l-1.996-7.26Z" fill="#4EA3FB"/><path d="M110.903 138.561H84.189c-.835 0-1.524-.69-1.524-1.524l-.726-17.096c0-.835.69-1.524 1.524-1.524h27.803c.835 0 1.525.689 1.525 1.524l-.363 17.096c0 .834-.69 1.524-1.525 1.524Z" fill="#FFBE55"/><path d="M116.076 174.041c1.796.399 4.228 2.377 5.39 3.393.235.2.09.599-.236.599-1.87-.036-6.098-.236-7.078-1.07-1.271-1.089-.908-2.904-.908-2.904h2.832v-.018Zm13.465-2.251c1.598.436 3.703 2.287 4.755 3.285.236.218.055.599-.254.581-1.76-.127-5.535-.472-6.388-1.289-1.125-1.052-.708-2.704-.708-2.704l2.595.127Z" fill="#1A87D8"/><path d="M97.456 131.211a2.722 2.722 0 1 0 0-5.445 2.722 2.722 0 0 0 0 5.445Z" fill="#fff"/><path d="m73.5 167.144-3.448-1.996-3.448 1.996v-12.703H73.5v12.703Zm53.464-75.224c0 .345-.127.654-.344.908.217.236.344.562.344.907v1.125c0 .236-.072.472-.181.672.109.2.181.435.181.671v1.126a1.34 1.34 0 0 1-1.343 1.343h-11.687a1.34 1.34 0 0 1-1.343-1.343v-1.144c0-.236.073-.472.182-.671a1.428 1.428 0 0 1-.182-.672v-1.125c0-.345.127-.653.345-.907a1.34 1.34 0 0 1-.345-.908v-1.125a1.34 1.34 0 0 1 1.343-1.343h11.687a1.34 1.34 0 0 1 1.343 1.343v1.143Zm9.329-25.443c0 6.551-3.812 12.195-9.329 14.881v6.098a.844.844 0 0 1-.834.835h-12.704a.844.844 0 0 1-.835-.835v-6.098c-5.517-2.668-9.328-8.33-9.328-14.881 0-9.129 7.386-16.515 16.515-16.515 9.128 0 16.515 7.404 16.515 16.515Z" fill="#FFBE55"/><path opacity=".23" d="M125.404 92.918h-11.071m11.071 2.541h-11.071" stroke="#7F7F7F" stroke-width="2" stroke-miterlimit="10" stroke-linecap="round"/><path d="M122.609 68.51c-.2-.182-.49-.273-.799-.237a1.439 1.439 0 0 0-.98.563 2.19 2.19 0 0 0-.363.907c-.163-.09-.344-.181-.508-.29l-.054-.036h-.236l-.055.036c-.181.109-.344.2-.508.29a2.164 2.164 0 0 0-.363-.907 1.4 1.4 0 0 0-.98-.563 1.028 1.028 0 0 0-.798.236c-.272.254-.363.617-.272.998.145.508.562.926 1.052 1.017.309.054.599.036.908-.037.453 5.898.635 11.87.508 17.767h.544a182.015 182.015 0 0 0-.508-17.803c0-.054 0-.109-.018-.163.218-.091.417-.2.617-.327.2.109.399.236.617.327 0 .054 0 .109-.018.163a182.015 182.015 0 0 0-.508 17.803h.544c-.127-5.898.055-11.887.508-17.767.291.073.599.11.908.037.472-.091.907-.508 1.052-1.017.073-.38-.018-.744-.29-.998Zm-4.773 1.505c-.272-.054-.545-.326-.635-.635-.037-.127-.055-.326.109-.453a.428.428 0 0 1 .308-.11h.073a.86.86 0 0 1 .599.346c.163.217.254.49.29.798-.254.073-.49.09-.744.055Zm4.519-.635c-.091.309-.345.581-.635.636-.236.054-.49.018-.726-.055.054-.308.127-.58.29-.798.127-.182.363-.309.599-.345a.464.464 0 0 1 .381.109c.127.127.109.326.091.453Z" fill="#fff"/><path d="M115.422 52.993c-3.992 1.451-10.526 6.714-9.981 15.244" stroke="#fff" stroke-width="4" stroke-miterlimit="10" stroke-linecap="round"/><path d="M93.554 82.574a4.628 4.628 0 1 0 0-9.255 4.628 4.628 0 0 0 0 9.255ZM143.098 64.789a2.087 2.087 0 1 0 0-4.174 2.087 2.087 0 0 0 0 4.174ZM136.293 98.907a3.448 3.448 0 1 0 0-6.896 3.448 3.448 0 0 0 0 6.896ZM103.263 50.815a3.448 3.448 0 1 0 0-6.897 3.448 3.448 0 0 0 0 6.897Z" fill="#FFBE55"/><path opacity=".14" d="m73.5 167.144-3.448-1.996-3.448 1.996v-12.703H73.5v12.703Z" fill="#0C0C0C"/></svg>