<svg width="256" height="192" viewBox="0 0 256 192" fill="none" xmlns="http://www.w3.org/2000/svg">
<path fill-rule="evenodd" clip-rule="evenodd" d="M132.83 15.4799C185.67 18 227.737 61.6352 227.737 115.099C227.737 129.36 224.738 142.918 219.346 155.187H36.6539C31.262 142.918 28.2626 129.36 28.2626 115.099C28.2626 79.4202 47.0008 48.1231 75.169 30.496C77.2785 44.9811 89.7486 56.1066 104.819 56.1066C121.368 56.1066 134.785 42.6903 134.785 26.1408C134.785 22.3854 134.092 18.7924 132.83 15.4799Z" fill="#EDE7B0"/>
<path fill-rule="evenodd" clip-rule="evenodd" d="M132.829 15.4774C152.768 16.4287 171.169 23.2374 186.359 34.2163C179.456 37.561 173 41.8901 167.21 47.1269C155.771 57.4728 139.666 60.8994 125.006 56.1066C121.906 55.093 118.754 54.4322 115.601 54.1059C126.823 49.7762 134.785 38.8888 134.785 26.1408C134.785 22.3845 134.091 18.7906 132.829 15.4774ZM98.8665 55.5144C89.5009 58.1127 80.9921 63.7166 74.8529 71.8533C69.8709 78.4562 63.2458 83.6384 55.6375 86.8839C47.8905 90.1885 39.5114 91.645 31.1575 91.1777C37.434 65.6835 53.5144 44.0501 75.169 30.4963C76.9934 43.0221 86.5652 53.035 98.8665 55.5144Z" fill="#F5F0BF"/>
<path fill-rule="evenodd" clip-rule="evenodd" d="M227.64 119.53C227.086 132.169 224.176 144.196 219.346 155.187H36.654C31.6817 143.873 28.7441 131.462 28.3169 118.416C32.15 118.6 35.9705 119.511 39.5662 121.171C46.7644 124.494 55.3022 122.444 60.2076 116.216C71.895 101.377 91.8701 95.8547 109.52 102.584C124.339 108.234 140.808 107.68 155.214 101.049C170.958 93.8019 189.525 96.8361 202.143 108.718C209.171 115.336 218.247 119.089 227.64 119.53Z" fill="#D9D186"/>
<path fill-rule="evenodd" clip-rule="evenodd" d="M174.319 86.7757C174.827 86.7757 175.28 86.898 175.674 87.1246C178.721 79.8905 184.281 74.4244 188.964 74.4244C192.697 74.4244 194.878 77.8954 194.93 82.9663C196.149 82.0115 197.416 81.4587 198.596 81.4587C200.498 81.4587 201.757 82.8961 202.181 85.1408C203.941 82.0346 206.494 79.8588 208.698 79.8588C211.65 79.8588 212.858 83.7619 211.396 88.5767C211.381 88.6285 211.364 88.68 211.348 88.7317C211.601 88.6309 211.852 88.5767 212.094 88.5767C213.239 88.5767 213.845 89.7827 213.685 91.4585L220.029 92.2925H160.099L168.435 91.2776C170.088 88.6046 172.35 86.7757 174.319 86.7757ZM120.765 71.8533L112.415 71.0052C113.403 68.711 112.753 66.8976 110.885 66.8976C109.532 66.8976 107.896 67.8498 106.628 69.2469C106.096 67.6485 104.785 66.6627 102.812 66.6627C100.789 66.6627 98.4568 67.7 96.3333 69.3717L96.1412 69.3521C96.8717 65.4638 95.2192 62.6921 91.7058 62.6921C89.743 62.6921 87.5233 63.5572 85.4169 64.9985C85.1575 60.6971 82.5756 57.8716 78.097 57.8716C74.2635 57.8716 69.8148 59.9419 65.8375 63.2357C65.4213 61.4973 64.1311 60.4048 62.1075 60.4048C58.3111 60.4048 53.3719 64.2491 51.0756 68.9913C50.7651 69.6323 50.5196 70.2565 50.3352 70.8574L39.5662 71.8533H120.765Z" fill="#E7CAC9"/>
<path d="M128 176.523C189.443 176.523 239.252 166.97 239.252 155.187C239.252 143.403 189.443 133.851 128 133.851C66.5572 133.851 16.7479 143.403 16.7479 155.187C16.7479 166.97 66.5572 176.523 128 176.523Z" fill="#9EC93A"/>
<path d="M157.549 157.632C153.888 157.632 150.567 156.073 150.132 154.149C149.697 152.226 152.313 150.667 155.974 150.667C159.635 150.667 162.955 152.226 163.39 154.149C163.825 156.073 161.21 157.632 157.549 157.632Z" fill="#B0DB4B"/>
<path fill-rule="evenodd" clip-rule="evenodd" d="M145.217 112.83L149.139 119.461C151.719 130.37 157.434 140.99 165.654 150.147L170.318 138.692L163.515 117.522C164.228 99.9816 136.011 97.2629 145.217 112.83ZM69.1035 93.8666L69.1068 93.8681C69.2083 93.9254 69.3124 93.9781 69.4188 94.026C73.53 96.1611 75.9251 99.8273 77.1599 104.528C78.1456 100.95 79.1315 97.3712 80.1172 93.7929C77.9066 92.4847 76.0997 89.8755 75.1925 88.0388C74.8597 87.1829 74.2467 86.4388 73.3945 85.9499C71.891 85.0875 70.6494 85.3522 69.3743 84.3014C67.0399 82.3778 66.5859 79.7651 63.6099 78.8403C62.8127 77.299 61.0834 76.8816 59.8594 77.935C57.9412 79.586 56.8086 79.8497 54.8906 81.5007C54.0926 81.8131 52.7782 83.7011 52.6974 84.6976C52.546 86.5599 54.5227 86.1201 55.6375 86.8838C58.9675 88.75 62.0133 88.2483 65.3427 90.1139C66.6468 90.8447 67.3352 92.4565 68.4639 93.4175C68.6675 93.5909 68.8812 93.7407 69.1037 93.8664L69.1035 93.8666Z" fill="#E7CAC9"/>
<path fill-rule="evenodd" clip-rule="evenodd" d="M102.131 118.531L96.7724 106.887C93.2845 99.3082 84.5953 96.2222 77.6168 91.649L74.3408 96.8096L76.7851 104.344C80.4017 112.921 86.891 119.972 95.1391 124.286L102.131 118.531ZM145.742 66.1393L147.834 64.281C152.245 60.3617 158.914 60.685 162.938 65.0131C167.416 69.8288 171.06 75.3802 173.716 81.4322C176.352 87.4389 174.528 94.5009 169.329 98.4159C164.273 102.224 160.845 107.858 159.751 114.158L142.69 103.744L145.742 66.1393Z" fill="#E7CAC9"/>
<path fill-rule="evenodd" clip-rule="evenodd" d="M154.966 62.8656L151.694 61.69C147.463 60.1701 142.774 60.3881 138.714 62.2932C134.653 64.1982 131.573 67.625 130.188 71.7799C127.801 78.934 123.905 85.5306 118.745 91.1516C113.985 96.3373 114.37 104.25 119.612 108.98C124.854 113.711 133.041 113.533 138.058 108.578L155.2 86.5992L154.966 62.8656Z" fill="#E7CAC9"/>
<path fill-rule="evenodd" clip-rule="evenodd" d="M146.4 67.9312L148.478 66.0729C152.859 62.1536 159.483 62.4768 163.481 66.805C167.929 71.6207 171.548 77.1721 174.186 83.2241C176.805 89.2308 174.993 96.2927 169.829 100.208C164.807 104.016 161.402 109.65 160.315 115.95L143.369 105.536L146.4 67.9312Z" fill="#1B210D"/>
<path fill-rule="evenodd" clip-rule="evenodd" d="M154.247 64.4928L151.125 63.3335C147.09 61.8348 142.617 62.0498 138.743 63.9284C134.87 65.8068 131.932 69.1861 130.61 73.2832C128.333 80.338 124.616 86.843 119.694 92.3859C115.153 97.4996 115.52 105.302 120.521 109.967C125.522 114.632 133.331 114.456 138.117 109.571L154.47 87.8967L154.247 64.4928Z" fill="#1B210D"/>
<path fill-rule="evenodd" clip-rule="evenodd" d="M68.3231 94.3492C72.628 96.6214 75.1134 100.448 76.3794 105.315C77.3651 101.774 78.3511 98.2332 79.3368 94.6921C77.1262 93.3003 75.3192 90.6228 74.412 88.7518C72.2969 90.2741 70.4382 92.8269 68.3231 94.3492Z" fill="#D97109"/>
<path fill-rule="evenodd" clip-rule="evenodd" d="M67.6835 93.8759C66.5546 92.8723 65.8663 91.2343 64.5622 90.4542C61.2328 88.4627 58.1871 88.8491 54.857 86.8571C53.7422 86.0511 51.7656 86.4162 51.9168 84.5598C51.9978 83.5662 53.3121 81.7279 54.1102 81.4457C56.0281 79.8673 57.1608 79.6465 59.0788 78.068C60.3029 77.0608 62.0322 77.5436 62.8294 79.115C65.8054 80.1525 66.2594 82.7823 68.5939 84.7943C69.8689 85.8933 71.1106 85.6756 72.614 86.5948C74.5617 87.7857 75.2595 90.262 74.2198 92.2947C74.153 92.4252 74.0862 92.5559 74.0195 92.6865C73.4259 93.847 72.4247 94.5954 71.1434 94.8359C69.862 95.0766 68.6575 94.7423 67.6835 93.8759Z" fill="#F08418"/>
<path fill-rule="evenodd" clip-rule="evenodd" d="M100.58 121.73L96.5247 109.571C93.8851 101.656 84.8961 97.6935 78.4588 92.3857L74.6389 97.1577L76.9344 104.861C79.593 113.781 85.2735 121.498 93.0012 126.687L100.58 121.73Z" fill="#D97109"/>
<path fill-rule="evenodd" clip-rule="evenodd" d="M100.067 120.193L96.5247 109.571C95.1923 105.575 92.2416 102.587 88.8183 99.925C88.0935 100.092 87.4039 100.426 86.8101 100.92C82.3513 104.622 87.3946 118.446 95.1905 120.203C96.8237 120.571 98.4884 120.556 100.067 120.193Z" fill="#F08418"/>
<path fill-rule="evenodd" clip-rule="evenodd" d="M61.4694 130.131L63.8963 120.866C66.7499 109.971 73.1609 99.4467 77.6289 89.1857C79.3739 85.1794 81.0563 87.1842 81.7143 89.7875C83.8834 98.3689 84.1977 107.317 82.6351 115.978C81.3648 123.019 78.0058 129.429 73.0321 134.304L61.4694 130.131Z" fill="#FF9933"/>
<path fill-rule="evenodd" clip-rule="evenodd" d="M83.1112 97.1578C83.9108 103.418 83.755 109.772 82.6351 115.978C81.6333 121.531 79.3323 126.69 75.9652 131.015L70.2562 126.236C78.1795 125.63 82.2815 112.43 82.8814 101.387L83.1112 97.1578Z" fill="#F08418"/>
<path fill-rule="evenodd" clip-rule="evenodd" d="M113.764 119.861L108.13 118.323C97.4086 116.502 86.3836 119.328 77.2026 124.813C75.391 125.895 73.3298 126.484 71.1937 126.379C68.167 126.229 65.4254 127.994 64.3391 130.792C61.4896 138.131 64.2579 144.03 74.2338 145.871C89.6116 149.331 105.503 148.86 120.429 144.503L113.764 119.861Z" fill="#E7CAC9"/>
<path d="M136.989 154.15C176.559 154.15 208.636 150.498 208.636 145.993C208.636 141.488 176.559 137.836 136.989 137.836C97.4194 137.836 65.342 141.488 65.342 145.993C65.342 150.498 97.4194 154.15 136.989 154.15Z" fill="#364513"/>
<path fill-rule="evenodd" clip-rule="evenodd" d="M144.718 112.18L148.268 118.811C150.236 129.72 155.356 140.339 163.062 149.497L168.368 138.042L162.753 116.872C164.45 99.3312 136.385 96.6125 144.718 112.18Z" fill="#F08418"/>
<path fill-rule="evenodd" clip-rule="evenodd" d="M113.712 122.612L108.083 120.778C97.3722 118.396 86.3824 121.322 77.2106 126.333C75.4007 127.322 70.5046 126.188 68.3705 125.97C65.3469 125.663 62.608 127.287 61.5227 130.031C58.6758 137.228 64.2542 144.222 74.2201 146.585C89.5824 150.851 105.458 151.209 120.369 147.626L113.712 122.612Z" fill="#FF9933"/>
<path fill-rule="evenodd" clip-rule="evenodd" d="M61.1488 136.41C62.4712 141.05 67.2816 144.94 74.2201 146.585C89.1642 150.735 104.594 151.186 119.149 147.909L115.169 132.922L95.7437 137.176C91.8919 144.066 67.9636 144.204 61.1488 136.41Z" fill="#F08418"/>
<path d="M85.8475 131.336C91.6593 129.302 96.0734 126.065 95.7066 124.107C95.3399 122.149 90.3311 122.212 84.5193 124.247C78.7075 126.282 74.2935 129.518 74.6602 131.476C75.027 133.434 80.0357 133.371 85.8475 131.336Z" fill="#FFAA54"/>
<path fill-rule="evenodd" clip-rule="evenodd" d="M126.988 149.081L110.807 148.519C103.407 148.261 96.7652 143.882 93.8615 137.345C87.5188 123.065 103.667 108.234 118.953 113.56C129.435 110.678 137.69 113.628 144.073 124.207C147.417 129.75 147.254 136.542 143.649 141.789C140.045 147.037 133.617 149.311 126.988 149.081Z" fill="#E7CAC9"/>
<path fill-rule="evenodd" clip-rule="evenodd" d="M77.7681 89.0611L78.9167 84.653C79.7749 81.3596 80.13 77.9463 79.9699 74.528C79.8957 72.9421 80.9315 71.5385 82.4611 71.1518L86.4854 69.0737L86.995 68.3491C87.4669 67.6784 88.3088 67.3765 89.1117 67.5906C89.9144 67.8047 90.5111 68.49 90.6116 69.3133C90.7229 70.2246 90.6773 71.1454 90.4768 72.0353C90.2544 73.0218 90.3206 74.057 90.6673 75.0179C91.375 76.9789 90.826 79.151 89.2812 80.5022C88.3895 81.2822 87.8983 82.4256 87.9413 83.622C88.0024 85.3254 88.1075 87.0278 88.2564 88.7274C88.4035 90.4049 87.7821 92.0441 86.5676 93.1828C85.3531 94.3215 83.6769 94.8363 82.0116 94.5821C79.3532 94.1762 77.101 91.6206 77.7681 89.0611Z" fill="#FF9933"/>
<path fill-rule="evenodd" clip-rule="evenodd" d="M89.5345 80.2643C89.4532 80.346 89.369 80.4255 89.2813 80.5022C88.3894 81.2823 87.8984 82.4257 87.9413 83.622C88.0025 85.3254 88.1076 87.0277 88.2565 88.7273C88.2918 89.1316 88.2827 89.5336 88.2314 89.9269C88.0434 88.785 87.5003 87.7315 86.6792 86.9162C85.3501 85.5968 85.3091 83.4606 86.5863 82.0911C87.1753 81.4596 87.8908 80.9593 88.6861 80.623L89.5345 80.2643Z" fill="#F08418"/>
<path fill-rule="evenodd" clip-rule="evenodd" d="M127.223 151.65L111.042 151.087C103.642 150.83 97.0006 146.451 94.0968 139.914C87.7542 125.634 103.903 110.802 119.188 116.128C129.67 113.247 137.925 116.196 144.308 126.775C147.653 132.318 147.489 139.11 143.885 144.358C140.28 149.605 133.852 151.88 127.223 151.65Z" fill="#364513"/>
<path fill-rule="evenodd" clip-rule="evenodd" d="M117.142 124.982C119.428 124.911 122.585 124.013 120.772 114.86C118.467 103.218 128.717 97.7573 138.247 101.253C144.253 103.455 141.031 102.233 146.425 101.215C151.141 100.326 156.761 105.106 157.284 110.453C157.696 114.668 154.203 114.712 156.079 118.829C162.765 133.507 151.604 136.991 146.7 134.824C145.262 140.015 144.097 138.957 140.792 140.917C135.186 144.241 132.849 151.827 125.721 151.59C108.611 151.019 103.729 125.398 117.142 124.982Z" fill="#E7CAC9"/>
<path fill-rule="evenodd" clip-rule="evenodd" d="M157.577 130.352C155.726 135.251 149.89 136.234 146.7 134.824C145.262 140.015 144.097 138.957 140.792 140.917C135.186 144.241 132.849 151.828 125.721 151.59C119.026 151.366 114.203 147.307 111.616 142.423C113.366 142.468 115.107 141.95 116.558 140.89C118.985 139.117 120.202 136.123 119.718 133.119L131.153 109.571L131.363 114.115C131.578 118.766 132.81 123.332 134.972 127.491C135.979 129.428 137.754 130.859 139.853 131.428C141.952 131.996 144.177 131.648 145.972 130.47C147.515 129.457 149.52 129.434 151.124 130.411C153.131 131.635 155.639 131.612 157.577 130.352Z" fill="#E1EDC5"/>
<path fill-rule="evenodd" clip-rule="evenodd" d="M118.141 112.256L117.69 118.931C116.904 130.558 119.379 141.868 124.842 151.613L131.622 151.871C140.279 152.2 152.935 151.197 161.481 148.616L162.541 145.181L147.295 143.107C142.095 140.72 139.543 140.108 133.122 139.386L132.831 116.827C143.572 100.674 119.39 93.7704 118.141 112.256Z" fill="#FF9933"/>
<path fill-rule="evenodd" clip-rule="evenodd" d="M132.831 116.827C131.961 127.678 130.539 134.929 125.713 143.093L126.918 142.275C128.815 140.989 130.909 140.013 133.122 139.386L132.831 116.827Z" fill="#F08418"/>
<path d="M121.638 119.423C123.778 119.504 126.36 115.839 127.403 111.237C128.447 106.634 127.557 102.837 125.417 102.756C123.276 102.674 120.694 106.339 119.651 110.942C118.607 115.544 119.497 119.341 121.638 119.423Z" fill="#FFAA54"/>
<path fill-rule="evenodd" clip-rule="evenodd" d="M160.867 124.626L191.789 121.738C192.825 121.641 193.403 122.442 193.073 123.518L185.514 148.181C185.185 149.257 184.067 150.216 183.031 150.313L152.109 153.201C151.073 153.298 150.495 152.497 150.825 151.421L158.384 126.758C158.714 125.682 159.831 124.723 160.867 124.626Z" fill="#364513"/>
<path d="M170.463 142.319C174.465 141.945 178.374 139.471 179.195 136.793C180.016 134.115 177.437 132.247 173.435 132.621C169.434 132.995 165.524 135.469 164.703 138.147C163.883 140.825 166.461 142.693 170.463 142.319Z" fill="#47591E"/>
<path fill-rule="evenodd" clip-rule="evenodd" d="M189.37 134.416L186.39 135.178C185.617 135.376 183.69 136.122 183.393 137.225C182.941 138.899 184.421 141.24 185.037 142.436C185.659 143.644 186.609 144.399 187.728 144.577C189.022 144.782 190.457 143.548 191.137 141.647C191.744 139.948 192.277 138.216 192.731 136.465C193.481 133.576 192.039 132.441 190.182 131.765L189.37 134.416ZM146.373 87.8966C143.825 93.5813 140.749 97.1073 135.993 100.593C138.514 101.017 140.282 105.372 142.87 109.795C145.603 114.464 148.204 117.122 149.161 121.824C155.694 118.817 152.933 105.763 148.686 101.195C149.323 97.7942 151.089 94.4656 153.475 92.1328L146.373 87.8966Z" fill="#FF9933"/>
<path fill-rule="evenodd" clip-rule="evenodd" d="M148.686 101.195C149.249 98.192 150.692 95.2451 152.664 92.9906L145.588 90.231C144.461 91.767 144.002 93.6935 144.317 95.5724C144.632 97.4515 145.694 99.1233 147.26 100.208L148.686 101.195Z" fill="#F08418"/>
<path fill-rule="evenodd" clip-rule="evenodd" d="M154.035 67.0691C168.906 70.6645 162.539 81.0381 162.914 87.0831C163.288 93.128 156.613 99.6432 154.035 99.6432C151.457 99.6432 140.678 95.8682 142.022 83.3562C143.366 70.8441 147.586 65.5101 154.035 67.0691Z" fill="#FF9933"/>
<path fill-rule="evenodd" clip-rule="evenodd" d="M163.915 76.2203C164.207 80.0011 162.728 84.0772 162.914 87.0831C163.281 93.0123 156.867 99.393 154.188 99.6352C154.724 98.9844 155.084 98.2208 155.084 97.4939C155.084 95.9503 155.187 94.1548 156.617 93.2341C157.755 92.5013 157.876 92.477 157.577 91.157C157.071 88.9259 157.274 86.5926 158.157 84.4823C159.359 81.6113 159.664 78.4443 159.034 75.3967L158.157 71.1616L161.813 72.4253L163.915 76.2203Z" fill="#F08418"/>
<path fill-rule="evenodd" clip-rule="evenodd" d="M157.035 73.729L158.224 74.6953C162.184 77.9128 164.479 82.7472 164.468 87.8498L169.708 83.2241L161.532 66.805L156.18 65.3295L157.035 73.729Z" fill="#1B210D"/>
<path fill-rule="evenodd" clip-rule="evenodd" d="M159.033 75.3966L155.601 77.6354C151.249 80.4741 148.314 85.034 147.533 90.1709C146.812 94.9103 143.044 98.6017 138.291 99.2243C133.538 99.847 128.946 97.2508 127.028 92.857L138.785 64.1544L161.471 65.1418L159.033 75.3966Z" fill="#1B210D"/>
<path fill-rule="evenodd" clip-rule="evenodd" d="M156.79 84.4823C154.964 82.4676 151.572 80.4856 149.493 83.724C152.758 82.549 153.958 83.0593 156.79 84.4823ZM158.916 84.4823C160.176 82.4676 162.518 80.4856 163.954 83.724C161.699 82.549 160.871 83.0593 158.916 84.4823ZM148.938 86.8002C148.919 88.8998 151.2 90.267 153.344 88.8112L148.938 86.8002Z" fill="#1B210D"/>
<path fill-rule="evenodd" clip-rule="evenodd" d="M155.419 87.3468C152.622 89.8915 149.95 90.1355 148.614 85.9231C150.466 87.64 153.036 88.0048 155.419 87.3468Z" fill="#E7CAC9"/>
<path fill-rule="evenodd" clip-rule="evenodd" d="M148.702 85.9397C151.315 83.9333 153.874 83.1467 155.862 87.2408C153.597 87.2357 151.212 86.7767 148.702 85.9397Z" fill="#F08418"/>
<path fill-rule="evenodd" clip-rule="evenodd" d="M147.736 85.515C149.987 87.765 153.152 88.5317 156.18 87.1817C154.399 86.33 151.311 85.9849 147.736 85.515Z" fill="#1B210D"/>
<path fill-rule="evenodd" clip-rule="evenodd" d="M153.839 87.5265C153.783 88.0675 153.219 88.5924 152.468 88.7592C151.618 88.948 150.851 88.6059 150.755 87.995C150.695 87.6124 150.913 87.2151 151.293 86.9252L153.839 87.5265Z" fill="#1B210D"/>
<path d="M151.044 88.1497C151.314 88.1497 151.532 88.0582 151.532 87.9453C151.532 87.8324 151.314 87.7409 151.044 87.7409C150.775 87.7409 150.556 87.8324 150.556 87.9453C150.556 88.0582 150.775 88.1497 151.044 88.1497Z" fill="#E7CAC9"/>
<path fill-rule="evenodd" clip-rule="evenodd" d="M162.26 86.9971C161.847 89.0628 160.347 90.3067 159.489 88.7804L162.26 86.9971Z" fill="#1B210D"/>
<path fill-rule="evenodd" clip-rule="evenodd" d="M158.632 87.3468C159.69 89.8915 161.173 90.1355 162.847 85.9231C161.414 87.64 159.858 88.0048 158.632 87.3468Z" fill="#E7CAC9"/>
<path fill-rule="evenodd" clip-rule="evenodd" d="M162.793 85.9397C161.724 83.9333 160.423 83.1467 158.4 87.2408C159.702 87.2357 161.171 86.7767 162.793 85.9397Z" fill="#D97109"/>
<path fill-rule="evenodd" clip-rule="evenodd" d="M163.439 85.515C161.662 87.765 159.678 88.5317 158.23 87.1817C159.935 86.4055 161.668 85.8627 163.439 85.515Z" fill="#1B210D"/>
<path fill-rule="evenodd" clip-rule="evenodd" d="M159.996 87.4105C159.721 87.9515 159.747 88.4764 160.084 88.6432C160.465 88.832 161.099 88.4899 161.501 87.879C161.752 87.4964 161.853 87.0991 161.799 86.8092L159.996 87.4105Z" fill="#1B210D"/>
<path d="M159.858 88.5194C159.704 88.5194 159.598 88.4279 159.622 88.315C159.647 88.2021 159.792 88.1106 159.946 88.1106C160.101 88.1106 160.207 88.2021 160.183 88.315C160.158 88.4279 160.013 88.5194 159.858 88.5194Z" fill="#E7CAC9"/>
<path fill-rule="evenodd" clip-rule="evenodd" d="M153.103 94.6554C154.457 94.2698 155.817 94.159 157.091 94.3302C157.297 94.3579 157.447 94.4955 157.486 94.6921C157.525 94.8886 157.448 95.1149 157.282 95.2873L157.07 95.6869C156.735 96.3189 156.124 96.8113 155.448 96.995C153.791 97.4457 153.051 96.0394 153.103 94.6554Z" fill="#1B210D"/>
<path fill-rule="evenodd" clip-rule="evenodd" d="M153.141 66.2835C144.401 62.8226 135.073 65.0891 133.797 75.3692C138.451 68.4338 144.114 63.8274 153.141 66.2835ZM167.038 74.0126L169.87 78.0265C173.182 82.7193 174.1 88.7507 172.34 94.2521L172.122 90.231C171.809 84.4689 169.872 79.3133 167.038 74.0126Z" fill="#404A29"/>
<path fill-rule="evenodd" clip-rule="evenodd" d="M168.229 81.135L169.923 85.0878C171.903 89.7093 171.283 94.5641 168.254 98.1482L169.041 95.0396C170.169 90.585 169.606 86.0605 168.229 81.135ZM153.579 75.5598C148.891 77.2301 144.252 82.0859 145.497 90.5304L146.26 87.4111C147.354 82.9412 150.005 79.2297 153.579 75.5598Z" fill="#404A29"/>
<path fill-rule="evenodd" clip-rule="evenodd" d="M162.875 64.405L165.774 68.4189C169.164 73.1117 170.103 79.143 168.302 84.6444L168.079 80.6233C167.759 74.8613 165.776 69.7057 162.875 64.405ZM132.277 75.2784L130.402 80.0898C128.209 85.7151 123.553 90.3469 117.876 92.5505L121.197 89.7691C125.956 85.7833 129.301 80.9267 132.277 75.2784Z" fill="#E7CAC9"/>
<path fill-rule="evenodd" clip-rule="evenodd" d="M139.136 81.2798C142.355 73.6398 146.176 69.7888 154.186 70.5561L150.926 71.7978C146.255 73.5774 142.611 76.9336 139.136 81.2798ZM134.556 88.5036C131.333 96.1418 127.51 99.9907 119.5 99.2189L122.761 97.979C127.432 96.2021 131.079 92.8478 134.556 88.5036Z" fill="#404A29"/>
<path fill-rule="evenodd" clip-rule="evenodd" d="M137.942 89.9445L135.721 92.6162C133.125 95.7398 129.168 97.7053 125.077 97.9039L127.788 96.8353C131.673 95.304 134.841 92.9162 137.942 89.9445Z" fill="#E7CAC9"/>
<path fill-rule="evenodd" clip-rule="evenodd" d="M135.34 78.5503C139.945 69.5073 144.954 65.3119 155.228 67.9353C147.229 68.2462 142.82 70.4045 135.34 78.5503ZM146.024 78.8452C141.002 81.8604 138.69 84.9179 140.028 90.4435L140.57 88.0396C141.348 84.5948 143.331 81.7104 146.024 78.8452ZM165.205 70.4599C161.99 66.3215 159.738 64.7169 157.665 66.9573L158.974 67.0308C160.85 67.1361 162.904 68.4657 165.205 70.4599ZM166.163 73.7434C163.533 70.3575 161.69 69.0446 159.994 70.8777L161.065 70.9378C162.6 71.024 164.28 72.1118 166.163 73.7434Z" fill="#404A29"/>
<path fill-rule="evenodd" clip-rule="evenodd" d="M136.963 74.8509L139.184 72.1792C141.78 69.0557 145.737 67.0901 149.829 66.8915L147.118 67.9601C143.232 69.4914 140.064 71.8792 136.963 74.8509Z" fill="#E7CAC9"/>
<path fill-rule="evenodd" clip-rule="evenodd" d="M174.52 84.0611L175.363 86.6819C177.352 93.0266 175.417 99.4273 169.103 102.824C173.218 98.1483 175.978 92.4553 174.52 84.0611Z" fill="#1B210D"/>
<path fill-rule="evenodd" clip-rule="evenodd" d="M233.265 162.107C218.278 170.493 176.812 176.523 128 176.523C66.5572 176.523 16.7479 166.97 16.7479 155.187C16.7479 150.955 23.1714 147.011 34.2498 143.694C30.3718 145.865 28.2626 148.192 28.2626 150.615C28.2626 162.398 78.0719 171.951 139.515 171.951C178.893 171.951 213.493 168.027 233.265 162.107Z" fill="#6E9610"/>
<path fill-rule="evenodd" clip-rule="evenodd" d="M87.4806 155.912C96.9788 161.227 123.258 165.048 154.192 165.048C193.132 165.048 224.699 158.994 224.699 151.527C224.699 148.845 220.628 146.346 213.607 144.243C216.065 145.619 217.401 147.094 217.401 148.629C217.401 156.097 185.834 162.151 146.895 162.151C121.939 162.151 100.011 159.664 87.4806 155.912Z" fill="#B0DB4B"/>
<path d="M54.9842 151.318C57.2754 150.992 59.1329 150.082 59.1329 149.286C59.1329 148.489 57.2754 148.108 54.9842 148.434C52.693 148.76 50.8356 149.67 50.8356 150.467C50.8356 151.263 52.693 151.644 54.9842 151.318Z" fill="#B0DB4B"/>
<path d="M38.8552 145.819C40.9359 145.523 42.6227 144.81 42.6227 144.227C42.6227 143.644 40.9359 143.411 38.8552 143.707C36.7744 144.003 35.0876 144.716 35.0876 145.299C35.0876 145.882 36.7744 146.115 38.8552 145.819Z" fill="#B0DB4B"/>
<path d="M228.805 154.861C230.465 155.041 231.811 154.726 231.811 154.158C231.811 153.59 230.465 152.983 228.805 152.803C227.145 152.624 225.8 152.939 225.8 153.507C225.8 154.075 227.145 154.682 228.805 154.861Z" fill="#B0DB4B"/>
<path d="M223.535 159.786C224.657 159.989 225.567 159.633 225.567 158.991C225.567 158.349 224.657 157.665 223.535 157.462C222.412 157.259 221.503 157.615 221.503 158.256C221.503 158.898 222.412 159.583 223.535 159.786Z" fill="#B0DB4B"/>
<path d="M206.604 153.493C207.726 153.68 208.636 153.352 208.636 152.759C208.636 152.166 207.726 151.533 206.604 151.346C205.482 151.159 204.572 151.487 204.572 152.08C204.572 152.673 205.482 153.305 206.604 153.493Z" fill="#B0DB4B"/>
<path d="M199.553 76.3368C200.909 76.3368 202.418 74.5363 202.923 72.3152C203.427 70.0942 202.737 68.2936 201.381 68.2936C200.025 68.2936 198.517 70.0942 198.012 72.3152C197.507 74.5363 198.197 76.3368 199.553 76.3368Z" fill="#E7CAC9"/>
<path d="M195.306 76.795C196.105 76.795 196.995 75.7337 197.292 74.4244C197.59 73.1151 197.183 72.0538 196.384 72.0538C195.584 72.0538 194.695 73.1151 194.397 74.4244C194.1 75.7337 194.507 76.795 195.306 76.795Z" fill="#E7CAC9"/>
<path d="M214.457 87.2327C215.256 87.2327 216.145 86.1713 216.443 84.862C216.74 83.5528 216.334 82.4914 215.534 82.4914C214.735 82.4914 213.846 83.5528 213.548 84.862C213.25 86.1713 213.657 87.2327 214.457 87.2327Z" fill="#E7CAC9"/>
<path d="M66.9553 60.2422C67.7547 60.2422 68.6439 59.1809 68.9415 57.8716C69.2391 56.5623 68.8323 55.501 68.0329 55.501C67.2335 55.501 66.3443 56.5623 66.0467 57.8716C65.7492 59.1809 66.156 60.2422 66.9553 60.2422Z" fill="#E7CAC9"/>
<path d="M87.2778 60.1782C88.466 60.1782 89.7879 58.6005 90.2302 56.6542C90.6725 54.708 90.0678 53.1302 88.8795 53.1302C87.6913 53.1302 86.3694 54.708 85.9271 56.6542C85.4848 58.6005 86.0895 60.1782 87.2778 60.1782Z" fill="#E7CAC9"/>
<path d="M107.678 65.9927C108.078 65.9927 108.523 65.462 108.672 64.8073C108.82 64.1526 108.617 63.6219 108.217 63.6219C107.818 63.6219 107.373 64.1526 107.224 64.8073C107.075 65.462 107.279 65.9927 107.678 65.9927Z" fill="#E7CAC9"/>
<path d="M101.163 85.274C102.351 85.274 103.673 83.6963 104.116 81.7501C104.558 79.8038 103.953 78.2261 102.765 78.2261C101.577 78.2261 100.255 79.8038 99.8125 81.7501C99.3701 83.6963 99.9748 85.274 101.163 85.274Z" fill="#F5F0BF"/>
<path d="M209.02 109.784C211.15 109.784 213.519 106.957 214.312 103.468C215.105 99.9801 214.021 97.1524 211.891 97.1524C209.762 97.1524 207.392 99.9801 206.6 103.468C205.807 106.957 206.891 109.784 209.02 109.784Z" fill="#F5F0BF"/>
<path d="M179.467 59.4462C180.532 59.4462 181.717 58.0323 182.113 56.2881C182.51 54.5439 181.968 53.1299 180.903 53.1299C179.838 53.1299 178.653 54.5439 178.257 56.2881C177.861 58.0323 178.402 59.4462 179.467 59.4462Z" fill="#F5F0BF"/>
<path d="M52.1761 110.932C53.241 110.932 54.4256 109.518 54.822 107.774C55.2184 106.03 54.6765 104.616 53.6116 104.616C52.5467 104.616 51.3621 106.03 50.9657 107.774C50.5693 109.518 51.1112 110.932 52.1761 110.932Z" fill="#F5F0BF"/>
<path d="M88.9423 163.169C93.2775 162.189 96.7919 159.454 96.7919 157.06C96.7919 154.666 93.2775 153.52 88.9423 154.5C84.607 155.481 81.0927 158.216 81.0927 160.61C81.0927 163.004 84.607 164.15 88.9423 163.169Z" fill="#B0DB4B"/>
<path d="M74.9266 159.529C77.0138 159.057 78.7059 157.74 78.7059 156.588C78.7059 155.435 77.0139 154.883 74.9266 155.355C72.8394 155.827 71.1473 157.144 71.1473 158.297C71.1473 159.449 72.8393 160.001 74.9266 159.529Z" fill="#B0DB4B"/>
<path d="M195.285 160.975C191.714 160.167 188.819 157.914 188.819 155.942C188.819 153.971 191.714 153.027 195.285 153.834C198.856 154.642 201.751 156.895 201.751 158.866C201.751 160.838 198.856 161.782 195.285 160.975Z" fill="#B0DB4B"/>
<path d="M215.024 164.545C216.359 164.851 216.895 164.315 216.22 163.349C215.545 162.383 213.915 161.352 212.579 161.047C211.244 160.741 210.708 161.277 211.383 162.243C212.058 163.209 213.688 164.24 215.024 164.545Z" fill="#B0DB4B"/>
<path fill-rule="evenodd" clip-rule="evenodd" d="M150.431 36.241L155.278 40.9399L166.602 37.3416L155.617 38.5904L150.431 36.241ZM143.319 39.8394L146.434 42.8591L153.711 40.5467L146.652 41.3493L143.319 39.8394ZM154.622 46.4858L157.737 49.5056L165.014 47.1931L157.955 47.9957L154.622 46.4858Z" fill="#E7CAC9"/>
</svg>
