<svg width="50" height="139" viewBox="0 0 50 139" fill="none" xmlns="http://www.w3.org/2000/svg">
<path d="M16.9755 136.363C18.598 137.395 20.7504 136.917 21.7829 135.295C22.1345 134.742 22.271 134.277 22.3695 133.699C22.4131 133.443 22.4438 133.169 22.4666 132.86L22.4727 132.776C22.5087 132.246 22.5249 131.587 22.5246 130.789L22.5235 130.465L22.5209 130.145C22.5068 128.758 22.4513 127.01 22.3597 124.956L22.3406 124.536C22.1682 120.793 21.8854 116.197 21.6012 112.28C21.4621 110.361 19.7943 108.919 17.8761 109.058C15.958 109.198 14.5158 110.865 14.655 112.784L14.7172 113.652L14.7637 114.316C15.0109 117.882 15.2462 121.826 15.3931 125.065L15.4266 125.829L15.4492 126.375C15.5195 128.128 15.5577 129.595 15.56 130.714V130.916L15.5588 131.163C15.555 131.641 15.5432 132.025 15.5243 132.302L15.5173 132.396C15.0642 133.859 15.6213 135.501 16.9755 136.363Z" fill="black"/>
<path d="M31.4165 131.959C33.039 132.991 35.1914 132.513 36.2239 130.891C36.5755 130.338 36.712 129.873 36.8105 129.295C36.8541 129.039 36.8848 128.765 36.9077 128.456L36.9137 128.372C36.9498 127.842 36.9659 127.183 36.9656 126.385L36.9645 126.061L36.962 125.741C36.9478 124.354 36.8923 122.606 36.8007 120.552L36.7816 120.132C36.6092 116.389 36.3264 111.793 36.0422 107.876C35.9031 105.957 34.2353 104.515 32.3172 104.654C30.399 104.794 28.9569 106.461 29.096 108.38L29.1582 109.248L29.2047 109.912C29.4519 113.478 29.6872 117.422 29.8341 120.661L29.8676 121.425L29.8902 121.971C29.9605 123.724 29.9987 125.191 30.001 126.31V126.512L29.9998 126.759C29.996 127.237 29.9842 127.621 29.9653 127.898L29.9583 127.992C29.5052 129.455 30.0623 131.097 31.4165 131.959Z" fill="black"/>
<path d="M10.855 90.5542L23.4389 91.7192V127.382H14.3237L10.855 90.5542Z" fill="#2B2B2B"/>
<path d="M14.3386 127.28L14.0313 125.232H23.4539V127.28H14.3386Z" fill="#1B1919"/>
<path d="M25.2254 99.714C31.9168 99.714 37.3412 96.9203 37.3412 93.4741C37.3412 90.0279 31.9168 87.2342 25.2254 87.2342C18.534 87.2342 13.1096 90.0279 13.1096 93.4741C13.1096 96.9203 18.534 99.714 25.2254 99.714Z" fill="#2B2B2B"/>
<path d="M25.3998 91.8023H38.2956L38.1932 127.619H28.852L25.3998 91.8023Z" fill="#2B2B2B"/>
<path d="M28.6772 127.587L28.37 125.539H38.407V127.587H28.6772Z" fill="#1B1919"/>
<path d="M4.72936 136.848C4.53702 136.372 4.67544 135.72 4.78314 135.543C4.89085 135.365 17.9693 134.55 17.9693 134.55C20.14 134.371 24.4427 133.627 24.7402 134.91C25.1079 136.498 25.0911 136.856 24.8404 138.085C24.4393 138.495 20.3813 138.853 19.0656 138.546C19.0656 137.829 18.9631 137.368 18.9631 137.368C18.9631 137.368 18.2297 137.833 17.3693 138.034C15.6144 138.444 15.2783 138.853 9.84257 138.853C5.4829 138.444 5.15992 137.912 4.72936 136.848Z" fill="#272727"/>
<path d="M18.8736 129.943C19.9636 129.957 21.6278 129.599 22.5346 128.342C22.6143 128.231 22.7774 128.214 22.8702 128.313C23.6856 129.19 23.1573 128.691 23.485 130.2C23.8082 131.689 24.0813 131.476 24.4046 132.859C24.6284 133.816 25.3534 136.05 24.4046 136.05H20.0769C19.053 136.05 17.6702 137.239 14.2606 137.573C8.60064 138.128 7.21756 137.368 6.08745 137.01C3.51611 136.194 4.82101 134.328 6.08745 133.732C7.94268 132.859 10.6015 132.202 11.954 131.479C13.0072 130.916 13.3688 130.741 13.9096 130.148C14.5996 129.391 14.8922 128.907 15.1111 128.531C15.2023 128.374 15.4499 128.41 15.5467 128.562C16.1445 129.511 17.8669 129.929 18.8736 129.943Z" fill="#563D2A"/>
<path d="M14.483 129.374C14.2306 129.284 14.01 129.569 14.1603 129.791L14.8077 130.747L13.4923 130.371C13.2396 130.298 13.0376 130.586 13.191 130.799L13.752 131.579L12.1405 131.252C11.8689 131.197 11.6935 131.531 11.8927 131.723L13.2234 133.01C13.3335 133.116 13.509 133.113 13.6154 133.003C13.7219 132.893 13.7189 132.718 13.6088 132.611L12.9603 131.984L14.3347 132.263C14.5818 132.313 14.7621 132.034 14.6149 131.829L14.107 131.123L15.389 131.49C15.638 131.561 15.84 131.282 15.6947 131.068L15.0944 130.181L16.4834 130.677C16.6639 130.741 16.8538 130.608 16.8538 130.416C16.8538 130.242 16.776 130.082 16.6342 129.902L16.5838 129.84L16.5517 129.802C16.5018 129.744 16.4487 129.688 16.3422 129.581L16.1183 129.356L16.0491 129.285C16.0138 129.249 15.9832 129.216 15.9535 129.183C15.8431 129.061 15.7685 128.96 15.7274 128.876L15.7185 128.857C15.6563 128.717 15.4925 128.654 15.3526 128.716C15.2127 128.779 15.1497 128.943 15.2119 129.082C15.2791 129.234 15.3872 129.383 15.5419 129.554L15.5963 129.614L15.6427 129.663C15.667 129.688 15.693 129.715 15.7217 129.744L15.834 129.857L14.483 129.374Z" fill="#2C221B"/>
<path d="M6.63818 135.798C7.3803 136.023 7.88545 136.142 8.54307 136.213C9.43752 136.31 10.383 136.265 11.4225 136.047C11.6162 136.007 11.7404 135.817 11.6997 135.623C11.6591 135.429 11.4691 135.305 11.2753 135.346C10.3102 135.548 9.44024 135.589 8.61987 135.501C8.01606 135.435 7.54916 135.325 6.84628 135.112C6.65682 135.054 6.45666 135.161 6.39919 135.351C6.34173 135.54 6.44873 135.74 6.63818 135.798Z" fill="#7C593E"/>
<path d="M14.041 132.759C15.0439 131.838 15.7896 131.377 16.5918 130.352C17.0264 130.352 17.6 130.404 19.2547 130.404C21.4108 130.404 21.9823 129.482 22.935 128.406C23.6587 128.867 23.286 129.84 23.7874 131.172C24.1886 132.237 24.9407 133.835 24.9407 135.781C24.5897 136.395 21.1299 136.088 20.0268 136.088C19.7761 134.859 17.8208 133.835 16.9503 133.579C16.1861 133.354 15.2946 133.271 14.041 132.759Z" fill="#423023"/>
<path d="M47.7421 136.888C47.9345 136.413 47.796 135.76 47.6884 135.583C47.5806 135.406 34.5022 134.589 34.5022 134.589C32.3315 134.412 28.0287 133.667 27.7314 134.95C27.3635 136.537 27.3803 136.896 27.631 138.125C28.0322 138.535 32.0901 138.893 33.4059 138.586C33.4059 137.869 33.5083 137.408 33.5083 137.408C33.5083 137.408 34.2417 137.873 35.1021 138.074C36.8571 138.483 37.1931 138.893 42.6289 138.893C46.9885 138.483 47.3116 137.952 47.7421 136.888Z" fill="#272727"/>
<path d="M33.5979 129.983C32.5078 129.997 30.8436 129.639 29.9367 128.382C29.8571 128.271 29.694 128.254 29.6012 128.353C28.7858 129.23 29.314 128.731 28.9865 130.24C28.6632 131.729 28.3902 131.517 28.0669 132.899C27.843 133.856 27.118 136.09 28.0669 136.09H32.3945C33.4184 136.09 34.8012 137.279 38.2108 137.613C43.8708 138.168 45.2539 137.408 46.3839 137.05C48.9553 136.234 47.6503 134.369 46.3839 133.772C44.5287 132.899 41.8698 132.243 40.5174 131.519C39.4642 130.956 39.1026 130.781 38.5619 130.188C37.8718 129.432 37.5792 128.948 37.3603 128.571C37.2691 128.415 37.0214 128.45 36.9247 128.603C36.3268 129.551 34.6045 129.97 33.5979 129.983Z" fill="#563D2A"/>
<path d="M36.7767 131.107C36.6314 131.322 36.8334 131.601 37.0824 131.529L38.3644 131.163L37.8565 131.869C37.7094 132.074 37.8895 132.353 38.1365 132.303L39.5109 132.025L38.8627 132.651C38.7526 132.757 38.7495 132.933 38.8559 133.043C38.9623 133.153 39.1378 133.156 39.2479 133.05L40.5786 131.764C40.7779 131.572 40.6027 131.238 40.3311 131.293L38.7192 131.619L39.2804 130.839C39.4338 130.626 39.2318 130.338 38.9791 130.411L37.6637 130.787L38.3111 129.831C38.4614 129.609 38.2408 129.324 37.9884 129.414L36.6374 129.896L36.7497 129.784L36.8006 129.732C36.8488 129.682 36.8894 129.639 36.9295 129.594C37.0842 129.423 37.1923 129.274 37.2595 129.122C37.3217 128.982 37.2587 128.819 37.1188 128.756C36.9843 128.697 36.8276 128.753 36.7605 128.881L36.7529 128.897C36.7142 128.984 36.6368 129.091 36.5179 129.223L36.469 129.276L36.4152 129.333C36.3897 129.359 36.3617 129.388 36.3299 129.42L36.0805 129.67L36.0184 129.734C35.9515 129.804 35.9137 129.848 35.8615 129.912C35.7042 130.104 35.6176 130.273 35.6176 130.456C35.6176 130.648 35.8075 130.781 35.988 130.717L37.377 130.221L36.7767 131.107Z" fill="#2C221B"/>
<path d="M45.6255 135.153L45.4779 135.197L45.3253 135.241C44.7786 135.398 44.3653 135.485 43.8516 135.541C43.0311 135.629 42.1612 135.588 41.1961 135.386C41.0023 135.345 40.8123 135.469 40.7717 135.663C40.7311 135.857 40.8552 136.047 41.049 136.087C42.0883 136.305 43.0337 136.35 43.9283 136.253C44.5854 136.183 45.0884 136.064 45.8329 135.839C46.0224 135.782 46.1296 135.582 46.0723 135.392C46.0151 135.203 45.815 135.095 45.6255 135.153Z" fill="#7C593E"/>
<path d="M38.4305 132.799C37.4277 131.877 36.6819 131.417 35.8796 130.392C35.4451 130.392 34.8714 130.444 33.2167 130.444C31.0607 130.444 30.4891 129.522 29.5364 128.446C28.8127 128.907 29.1854 129.88 28.684 131.212C28.2829 132.277 27.5308 133.875 27.5308 135.821C27.8818 136.435 31.3416 136.128 32.4446 136.128C32.6953 134.899 34.6506 133.875 35.5212 133.619C36.2853 133.394 37.177 133.311 38.4305 132.799Z" fill="#423023"/>
<path d="M9.75494 88.1513L9.73848 88.0818C9.66765 87.7701 9.60347 87.3251 9.55831 86.7711L9.54734 86.6294L9.53725 86.4843C9.43754 84.9683 9.47893 82.9217 9.65249 80.4727C9.96186 76.1073 10.6783 70.6738 11.4887 65.9497C11.8426 63.887 10.4572 61.9279 8.39446 61.5741C6.33172 61.2202 4.37268 62.6056 4.01884 64.6683L3.93951 65.1346C3.12312 69.9732 2.41153 75.4348 2.09247 79.937L2.07302 80.2173L2.05431 80.4994C1.8785 83.2127 1.85257 85.5243 2.00439 87.3868C2.10364 88.6045 2.27933 89.6544 2.56244 90.5632C2.99813 91.9618 3.68758 93.1016 4.89066 93.8882C6.64233 95.0335 8.99082 94.542 10.1361 92.7903C11.1055 91.3077 10.9023 89.3976 9.75494 88.1513Z" fill="#EBBAAA"/>
<path d="M36.7167 64.6373C38.5376 67.8652 39.7491 72.8283 40.1644 78.2775C40.5171 82.9052 40.2158 87.3321 39.5764 89.1619L39.5569 89.2166C38.8417 91.1834 39.8563 93.3577 41.8232 94.073C43.79 94.7882 45.9643 93.7736 46.6796 91.8067C47.7736 88.7981 48.1524 83.3552 47.7215 77.7015C47.2291 71.2413 45.7685 65.258 43.3178 60.9136C42.2895 59.0907 39.9782 58.4466 38.1553 59.4749C36.3325 60.5032 35.6884 62.8145 36.7167 64.6373Z" fill="#EBBAAA"/>
<path d="M7.47656 55.9453C7.47656 53.5385 12.7511 51.0821 16.4382 49.9139L21.2519 48.3168C21.9222 48.2957 26.5282 48.4872 27.1921 48.579L34.6687 51.0821C38.2115 51.5719 41.1194 53.4621 40.7626 57.0207L39.4873 72.3117L39.8408 92.4576C39.8482 92.6434 31.6283 90.3163 31.4425 90.3068L17.1039 92.7935L9.47373 92.4504C9.29532 92.4409 9.2029 91.9191 9.21768 91.7407L10.2427 70.4253L7.47656 55.9453Z" fill="#EBBAAA"/>
<path d="M41.7979 53.5366C40.9682 52.5951 38.2356 51.6434 36.9731 51.2853C37.7697 63.3605 37.8569 86.8459 38.1455 88.0739C38.5062 89.6089 47.1637 91.195 47.8851 90.5811C48.6066 89.967 49.4182 84.1852 49.2378 81.0129C49.0575 77.8406 42.8349 54.7134 41.7979 53.5366Z" fill="#322B1F"/>
<path d="M47.7927 90.614C48.2434 90.5321 49.2778 87.6097 49.6363 86.466L37.0388 84.4689C36.8851 85.5102 36.5984 87.7668 36.6803 88.4632C36.7827 89.3338 39.1383 90.1019 41.6988 90.5116C44.2593 90.9212 47.2294 90.7164 47.7927 90.614Z" fill="#3F3627"/>
<path d="M7.16093 53.1271C8.04297 52.1855 10.9479 51.2338 12.2902 50.8756C11.4433 62.9517 9.67285 87.4107 9.36604 88.6388C8.98255 90.1739 2.81537 91.1256 2.04837 90.5116C1.28136 89.8976 0.418494 84.1154 0.610244 80.9428C0.801993 77.7703 6.05836 54.304 7.16093 53.1271Z" fill="#322B1F"/>
<path d="M1.80509 90.8819C1.36385 90.8005 0.350991 87.8968 0 86.7605L12.3348 84.7761C12.4852 85.8108 12.766 88.0529 12.6858 88.7448C12.5855 89.6099 10.2789 90.3731 7.77191 90.7801C5.26484 91.1872 2.35664 90.9837 1.80509 90.8819Z" fill="#3F3627"/>
<path d="M19.8692 48.8456L20.2277 48.5896L25.5534 50.2795L28.0627 48.692L29.0357 49.1017L30.0599 52.3279L24.0684 53.6593L19.2547 52.0206L19.8692 48.8456Z" fill="#EBBAAA"/>
<path d="M23.1245 57.6771C22.6318 56.1937 22.8781 54.0453 22.8781 54.0453L20.6608 54.915L18 49.5442C14.9286 50.1069 14.7972 50.3114 12.5799 51.3345C9.93483 52.5548 10.4611 56.6541 10.0669 62.2295L9.52493 92.7663L16.8174 93.9428L21.6955 93.9939L23.8635 59.3651C23.8635 59.3651 23.6172 59.1605 23.1245 57.6771Z" fill="#E5EBF9"/>
<path d="M24.7298 57.6262C23.5041 56.5521 23.7085 55.6995 23.9284 54.8641L24.4469 54.455L27.464 54.148L30.3867 49.8514C30.3867 49.8514 34.5822 50.4652 35.9964 51.2837C37.4105 52.102 38.2591 61.0533 38.2591 61.0533L38.9191 92.9197H31.5449L23.2213 91.4334C23.0956 80.726 21.999 60.2209 23.2213 59.5188C24.8241 58.5981 25.0127 57.8741 24.7298 57.6262Z" fill="#DAE2F3"/>
<path d="M28.0627 57.5328C28.3455 57.5328 28.5748 57.3035 28.5748 57.0207C28.5748 56.7379 28.3455 56.5086 28.0627 56.5086C27.7799 56.5086 27.5506 56.7379 27.5506 57.0207C27.5506 57.3035 27.7799 57.5328 28.0627 57.5328Z" fill="#DAE2F3"/>
<path d="M20.1765 57.0207C20.4593 57.0207 20.6886 56.7914 20.6886 56.5086C20.6886 56.2258 20.4593 55.9965 20.1765 55.9965C19.8936 55.9965 19.6644 56.2258 19.6644 56.5086C19.6644 56.7914 19.8936 57.0207 20.1765 57.0207Z" fill="#E5EBF9"/>
<path d="M24.3244 62.1417C24.7486 62.1417 25.0926 61.7978 25.0926 61.3735C25.0926 60.9493 24.7486 60.6054 24.3244 60.6054C23.9002 60.6054 23.5563 60.9493 23.5563 61.3735C23.5563 61.7978 23.9002 62.1417 24.3244 62.1417Z" fill="#EDF2FF"/>
<path d="M46.9734 89.6922C47.3976 89.6922 47.7415 89.3483 47.7415 88.9241C47.7415 88.4999 47.3976 88.1559 46.9734 88.1559C46.5491 88.1559 46.2052 88.4999 46.2052 88.9241C46.2052 89.3483 46.5491 89.6922 46.9734 89.6922Z" fill="#332918"/>
<path d="M3.02134 89.7946C3.44558 89.7946 3.78948 89.4507 3.78948 89.0265C3.78948 88.6023 3.44558 88.2584 3.02134 88.2584C2.59711 88.2584 2.2532 88.6023 2.2532 89.0265C2.2532 89.4507 2.59711 89.7946 3.02134 89.7946Z" fill="#332918"/>
<path d="M23.7099 69.5158C24.1341 69.5158 24.4781 69.1489 24.4781 68.6964C24.4781 68.2439 24.1341 67.8771 23.7099 67.8771C23.2857 67.8771 22.9418 68.2439 22.9418 68.6964C22.9418 69.1489 23.2857 69.5158 23.7099 69.5158Z" fill="#EDF2FF"/>
<path d="M23.3002 76.7875C23.7245 76.7875 24.0684 76.4436 24.0684 76.0194C24.0684 75.5951 23.7245 75.2512 23.3002 75.2512C22.876 75.2512 22.5321 75.5951 22.5321 76.0194C22.5321 76.4436 22.876 76.7875 23.3002 76.7875Z" fill="#EDF2FF"/>
<path d="M28.37 51.1316C28.7222 49.9665 28.37 49.1345 28.2675 48.6224L31.1353 49.6978C31.1353 49.6978 32.1082 50.9268 31.4937 53.7433C30.8205 56.8289 27.8432 58.0449 27.1409 58.8642C26.8337 59.2227 26.9361 54.8699 24.5805 54.409C25.6559 54.153 27.7042 53.3336 28.37 51.1316Z" fill="#E5EBF9"/>
<path d="M20.1818 51.8486C19.4595 50.8244 19.8342 49.3879 20.1818 48.6224L17.6672 49.4929C17.6672 49.4929 16.2213 51.9825 17.0029 54.3886C17.9745 57.3792 21.4356 58.4598 21.4055 58.0961C21.0982 54.3886 22.3261 54.5268 22.8394 54.0506C21.9688 53.8457 21.1417 53.2096 20.1818 51.8486Z" fill="#DAE2F3"/>
<path d="M22.1923 62.6315C21.4517 59.4781 20.8801 53.8184 18.9766 49.1345C18.9766 49.1345 17.0015 49.3393 15.1189 49.8395C13.2364 50.3397 11.0184 51.2497 11.0184 51.2497C9.81992 53.0949 9.92163 58.1147 9.58323 68.6749C9.24484 79.2351 8.64839 89.806 8.2959 94.561C9.77639 95.04 19.4115 97.2333 24.276 95.5301C24.276 94.3011 24.7044 93.1294 24.7551 91.7407C24.9205 87.2062 24.3569 82.8893 24.276 75.2287C24.2045 68.4693 23.2805 67.2648 22.1923 62.6315Z" fill="#483E2D"/>
<path d="M13.6217 51.3478L18.9474 48.9296C19.7668 51.3478 20.6 54.1346 21.5079 57.0802C22.5321 60.403 24.2732 66.6526 24.2732 78.8359L13.6217 58.7988L17.1039 54.9726L13.6217 56.3823V51.3478Z" fill="#5A4D37"/>
<path d="M28.7551 63.8709C28.7551 60.7705 28.9776 53.5194 30.8689 49.032L36.2014 50.1227C37.6321 50.4153 38.8556 51.3158 38.9674 52.7719C39.2033 55.8422 38.6928 61.4545 38.9454 69.0566C39.2817 79.1735 39.593 89.7339 39.9433 94.2892C36.9753 95.4813 30.1413 97.2124 25.3082 95.5807C25.3082 94.5206 24.95 93.8918 24.4894 91.905C24.4685 88.343 24.2171 84.4656 24.2847 78.2953C24.3557 71.8197 28.7551 66.9713 28.7551 63.8709Z" fill="#483E2D"/>
<path d="M35.0272 50.8161L30.7256 49.032C30.1794 51.0144 28.8682 55.152 27.9603 58.0515C26.9361 61.3223 24.6829 64.6922 24.6829 76.6851L35.0272 58.3489L31.5449 54.5825L35.0272 55.9701V50.8161Z" fill="#5A4D37"/>
<path d="M22.993 82.8302C23.4738 82.8302 23.8636 82.4404 23.8636 81.9596C23.8636 81.4788 23.4738 81.0891 22.993 81.0891C22.5122 81.0891 22.1224 81.4788 22.1224 81.9596C22.1224 82.4404 22.5122 82.8302 22.993 82.8302Z" fill="#332918"/>
<path d="M22.993 89.4874C23.4738 89.4874 23.8636 89.0976 23.8636 88.6168C23.8636 88.136 23.4738 87.7463 22.993 87.7463C22.5122 87.7463 22.1224 88.136 22.1224 88.6168C22.1224 89.0976 22.5122 89.4874 22.993 89.4874Z" fill="#332918"/>
<path d="M24.3624 42.5796H24.1051C21.9606 42.5796 20.2223 44.318 20.2223 46.4624V50.8368C20.2223 52.9812 21.9606 54.7196 24.1051 54.7196H24.3624C26.5068 54.7196 28.2452 52.9812 28.2452 50.8368V46.4624C28.2452 44.318 26.5068 42.5796 24.3624 42.5796Z" fill="#EBBAAA"/>
<path d="M38.844 35.7722C42.1964 35.7722 44.914 33.0546 44.914 29.7022C44.914 26.3499 42.1964 23.6322 38.844 23.6322C35.4917 23.6322 32.774 26.3499 32.774 29.7022C32.774 33.0546 35.4917 35.7722 38.844 35.7722Z" fill="#EBBAAA"/>
<path d="M10.2692 36.0794C6.91682 36.0794 4.19919 33.3619 4.19919 30.0095C4.19919 26.6571 6.91682 23.9395 10.2692 23.9395C13.6216 23.9395 16.3392 26.6571 16.3392 30.0095C16.3392 33.3619 13.6216 36.0794 10.2692 36.0794Z" fill="#EBBAAA"/>
<path d="M8.39835 18.46C8.39835 9.77742 15.437 2.73877 24.1196 2.73877C32.8022 2.73877 39.8409 9.77742 39.8409 18.46V25.8854L39.5884 34.0348C39.3296 42.3916 32.4803 49.032 24.1196 49.032C16.0421 49.032 9.36728 42.7302 8.90341 34.6659L8.39835 25.8854V18.46Z" fill="#F4D4C9"/>
<path d="M20.9201 40.094C22.9264 41.2086 25.2943 41.1797 27.8492 40.1345C28.2523 39.9696 28.4454 39.5092 28.2805 39.1061C28.1156 38.703 27.6551 38.5099 27.252 38.6748C25.1085 39.5516 23.2327 39.5745 21.686 38.7153C21.3053 38.5038 20.8252 38.641 20.6137 39.0217C20.4022 39.4024 20.5394 39.8825 20.9201 40.094Z" fill="#C99584"/>
<path d="M29.343 27.7289V29.5724C29.343 30.2512 29.8932 30.8015 30.572 30.8015C31.2508 30.8015 31.801 30.2512 31.801 29.5724V27.7289C31.801 27.0501 31.2508 26.4999 30.572 26.4999C29.8932 26.4999 29.343 27.0501 29.343 27.7289Z" fill="black"/>
<path d="M16.131 27.7289V29.5724C16.131 30.2512 16.6812 30.8015 17.36 30.8015C18.0387 30.8015 18.589 30.2512 18.589 29.5724V27.7289C18.589 27.0501 18.0387 26.4999 17.36 26.4999C16.6812 26.4999 16.131 27.0501 16.131 27.7289Z" fill="black"/>
<path d="M29.0754 22.9813L34.9397 22.725C35.6178 22.6954 36.1435 22.1216 36.1139 21.4435C36.0843 20.7654 35.5105 20.2397 34.8324 20.2693L28.9681 20.5256C28.29 20.5552 27.7643 21.129 27.7939 21.8071C27.8236 22.4852 28.3973 23.0109 29.0754 22.9813Z" fill="#393939"/>
<path d="M19.7627 20.5212L13.8931 20.4698C13.2144 20.4639 12.6593 21.0093 12.6533 21.688C12.6474 22.3668 13.1928 22.9218 13.8716 22.9278L19.7412 22.9792C20.4199 22.9851 20.975 22.4397 20.981 21.761C20.9869 21.0822 20.4415 20.5272 19.7627 20.5212Z" fill="#393939"/>
<path d="M23.2203 30.4747C22.5984 31.5719 22.2359 32.7711 22.2827 33.7495C22.3469 35.0935 23.1905 35.9971 24.611 35.9971V34.256C24.1672 34.256 24.0436 34.1236 24.0218 33.6665C23.9928 33.0589 24.2623 32.1673 24.735 31.3332L23.2203 30.4747Z" fill="#EBBAAA"/>
<path d="M25.3586 27.437C25.0226 26.1814 25.926 24.9343 27.2238 24.8623L34.4616 24.4606C35.7595 24.3885 36.7953 25.5279 36.6003 26.813L36.1767 29.6061C36.0312 30.5649 35.2333 31.2903 34.265 31.3441L28.181 31.6818C27.2127 31.7355 26.3394 31.1029 26.0888 30.1661L25.3586 27.437Z" fill="white" fill-opacity="0.29"/>
<path d="M24.9463 28.2694C25.0114 28.6026 25.3341 28.8199 25.6672 28.7549C26.0003 28.6898 26.2177 28.3671 26.1526 28.0341L24.9463 28.2694ZM25.3205 26.9784L25.9236 26.8606L25.9193 26.8387L25.9135 26.8171L25.3205 26.9784ZM26.8175 25.0524L26.8049 24.4381L26.7771 24.4386L26.7493 24.4417L26.8175 25.0524ZM34.8556 24.8873L34.9193 24.2761L34.8814 24.2722L34.843 24.2729L34.8556 24.8873ZM36.4765 26.4931L37.0865 26.5675L37.0871 26.5621L37.0878 26.5568L36.4765 26.4931ZM35.6912 27.8565C35.6501 28.1933 35.8899 28.4998 36.2267 28.5408C36.5637 28.5819 36.8701 28.3421 36.9112 28.0053L35.6912 27.8565ZM26.1526 28.0341L25.9236 26.8606L24.7173 27.0961L24.9463 28.2694L26.1526 28.0341ZM25.9135 26.8171C25.9148 26.822 25.8975 26.7388 25.9273 26.6013C25.9546 26.475 26.0199 26.3134 26.1662 26.1471L25.2435 25.3353C24.6579 26.001 24.6216 26.7499 24.7276 27.1396L25.9135 26.8171ZM26.1662 26.1471C26.3346 25.9556 26.5067 25.8334 26.6463 25.7586C26.7946 25.6791 26.8873 25.6631 26.8857 25.6632L26.7493 24.4417C26.4001 24.4807 25.7781 24.7275 25.2435 25.3353L26.1662 26.1471ZM26.8301 25.6669L34.8683 25.5018L34.843 24.2729L26.8049 24.4381L26.8301 25.6669ZM34.792 25.4986C34.8685 25.5065 35.0342 25.5403 35.2098 25.6161C35.3873 25.6926 35.5265 25.791 35.6087 25.8992L36.5875 25.1561C36.3328 24.8206 35.9877 24.6131 35.6966 24.4875C35.4037 24.3612 35.1166 24.2967 34.9193 24.2761L34.792 25.4986ZM35.6087 25.8992C35.735 26.0657 35.801 26.2108 35.8339 26.3135C35.8709 26.4284 35.8611 26.4702 35.8653 26.4294L37.0878 26.5568C37.1215 26.2326 36.9975 25.696 36.5875 25.1561L35.6087 25.8992ZM35.8665 26.4187L35.6912 27.8565L36.9112 28.0053L37.0865 26.5675L35.8665 26.4187Z" fill="black"/>
<path d="M11.5597 26.7155C11.3874 25.4272 12.4432 24.3062 13.7395 24.4011L20.9691 24.9299C22.2654 25.0248 23.1468 26.2875 22.7888 27.537L22.0108 30.2527C21.7437 31.1851 20.8594 31.8023 19.8922 31.7316L13.8151 31.287C12.8478 31.2162 12.0628 30.4768 11.9343 29.5155L11.5597 26.7155Z" fill="white" fill-opacity="0.29"/>
<path d="M11.1671 28.0699C11.2213 28.4049 11.5367 28.6327 11.8717 28.5785C12.2069 28.5243 12.4345 28.2089 12.3804 27.8738L11.1671 28.0699ZM11.583 26.7917L12.1897 26.6936L12.1861 26.6716L12.1808 26.6498L11.583 26.7917ZM13.1417 24.9154L13.1491 24.301L13.1213 24.3006L13.0935 24.3029L13.1417 24.9154ZM21.1811 25.0115L21.2646 24.4026L21.2267 24.3975L21.1884 24.397L21.1811 25.0115ZM22.7489 26.669L23.3561 26.7632L23.357 26.7578L23.3577 26.7525L22.7489 26.669ZM21.9196 28.0061C21.8677 28.3415 22.0974 28.6555 22.4327 28.7076C22.7682 28.7596 23.0822 28.5299 23.1342 28.1945L21.9196 28.0061ZM12.3804 27.8738L12.1897 26.6936L10.9763 26.8897L11.1671 28.0699L12.3804 27.8738ZM12.1808 26.6498C12.1821 26.6547 12.1674 26.5709 12.2017 26.4346C12.2332 26.3092 12.3036 26.1498 12.4553 25.9883L11.5593 25.1471C10.9524 25.7933 10.8918 26.5407 10.9851 26.9336L12.1808 26.6498ZM12.4553 25.9883C12.6298 25.8024 12.8058 25.6858 12.9477 25.6157C13.0984 25.541 13.1917 25.5279 13.1901 25.5281L13.0935 24.3029C12.7431 24.3305 12.1135 24.5568 11.5593 25.1471L12.4553 25.9883ZM13.1345 25.5299L21.1737 25.6259L21.1884 24.397L13.1491 24.301L13.1345 25.5299ZM21.0975 25.6203C21.1738 25.6307 21.3382 25.6698 21.5114 25.7513C21.6862 25.8335 21.8221 25.9363 21.9008 26.0472L22.9033 25.3364C22.6596 24.9927 22.3214 24.7741 22.0345 24.6392C21.7459 24.5034 21.461 24.4295 21.2646 24.4026L21.0975 25.6203ZM21.9008 26.0472C22.0216 26.2178 22.0828 26.3648 22.1125 26.4687C22.1457 26.5846 22.1345 26.6262 22.14 26.5855L23.3577 26.7525C23.4019 26.4297 23.2955 25.8893 22.9033 25.3364L21.9008 26.0472ZM22.1416 26.5748L21.9196 28.0061L23.1342 28.1945L23.3561 26.7632L22.1416 26.5748Z" fill="black"/>
<path d="M22.6857 27.2678C23.1295 27.0289 24.2732 26.6943 25.2974 27.2678" stroke="black" stroke-width="10"/>
<path d="M35.3344 13.1343C35.0169 10.47 34.7305 8.55683 34.5188 6.7806C34.3689 5.52243 34.3533 5.20152 37.9299 7.83784C41.5066 10.4742 42.0428 16.2581 41.0699 21.1742L39.5848 27.012L38.4804 26.7391L38.9191 19.3306C37.117 17.5167 35.6519 15.7987 35.3344 13.1343Z" fill="#6E6C6C"/>
<path d="M10.3264 15.9762C10.4741 13.2973 10.1722 13.4353 10.2708 11.6493C10.3405 10.3842 10.7764 10.661 8.51813 12.9807C7.27173 14.2609 7.74101 19.7614 8.00632 23.3588L8.32161 26.6744L8.82537 26.7022L9.0528 22.5781C9.94308 19.7203 10.1786 18.6551 10.3264 15.9762Z" fill="#6E6C6C"/>
<path fill-rule="evenodd" clip-rule="evenodd" d="M24.6485 0.596619H24.6484C24.6408 0.596619 24.6332 0.596619 24.6257 0.596619C24.6181 0.596619 24.6105 0.596619 24.603 0.596619H24.6029C19.7728 0.613398 8.20751 3.29151 7.77289 15.8247C9.05715 14.2809 11.0406 13.6075 12.8023 12.6C16.5109 10.4792 19.5391 9.70277 23.5572 9.70277C27.0101 9.70277 31.2451 10.4844 34.1054 11.8541C36.664 13.0794 38.9324 13.9985 41.4332 15.8247C40.9985 3.29154 29.4784 0.613398 24.6485 0.596619Z" fill="#272727"/>
<path d="M12.0721 4.3896L11.0809 7.91096L24.1477 5.88733L39.081 8.61722L39.0496 7.16831L37.9843 6.72554L37.9595 5.58711L36.6167 5.6163L36.5785 3.85692L34.852 3.89445L34.4391 2.55739L32.9044 2.59074L31.964 1.26514L30.3905 1.71351L29.8928 0.895992L28.2623 0.931439L28.242 0L26.0562 0.979391L25.4604 0.0604608L24.5216 1.01274L23.5421 0.102157L21.74 1.07321L20.5688 0.166788L19.3422 1.12533L18.4789 1.14409L17.5378 1.99288L17.1361 1.17328L15.5438 2.96809L14.4797 2.57706L13.1328 4.6254L12.0721 4.3896Z" fill="#272727"/>
<mask id="mask0_0_178" style="mask-type:luminance" maskUnits="userSpaceOnUse" x="9" y="2" width="30" height="10">
<path d="M11.0034 6.86452L9.66666 4.35046L23.0791 5.36679L38.0124 2.6369L37.9808 4.0858L36.9157 4.52858L36.8909 5.66701L35.5481 5.63782L35.5099 7.3972L33.7834 7.35967L33.3704 8.69673L31.8358 8.66338L30.8954 9.98898L29.3217 9.54061L28.8242 10.3582L27.1936 10.3227L27.1734 11.2541L24.9876 10.2747L24.3918 11.1937L23.4529 10.2414L22.4735 11.152L20.6714 10.1809L19.5001 11.0874L18.2735 10.1288L17.4102 10.11L16.4691 9.26124L16.0674 10.0808L14.4751 8.28603L13.411 8.67706L12.0641 6.62872L11.0034 6.86452Z" fill="#272727"/>
</mask>
<g mask="url(#mask0_0_178)">
<path d="M33.9125 5.50415H17.9233V16.3698H33.9125V5.50415Z" fill="#272727"/>
</g>
</svg>
