<svg width="196" height="196" viewBox="0 0 196 196" fill="none" xmlns="http://www.w3.org/2000/svg">
<path d="M187.833 193.278H9.61852C8.42074 193.278 7.44074 192.298 7.44074 191.1V182.57C7.44074 181.373 8.42074 180.393 9.61852 180.393H187.833C189.031 180.393 190.011 181.373 190.011 182.57V191.1C190.011 192.298 189.031 193.278 187.833 193.278Z" fill="#F7F7F7"/>
<path d="M100.178 183.478C133.654 183.478 160.793 156.34 160.793 122.863C160.793 89.3863 133.654 62.2482 100.178 62.2482C66.7011 62.2482 39.563 89.3863 39.563 122.863C39.563 156.34 66.7011 183.478 100.178 183.478Z" fill="#F3FAFF"/>
<path d="M175.311 165.674C176.6 162.39 177.906 158.742 176.69 155.439C176.4 154.64 175.946 153.787 176.219 152.971C176.581 151.864 178.033 151.483 178.505 150.43C179.05 149.269 178.197 147.926 178.414 146.673C178.632 145.403 179.884 144.568 181.1 144.114C182.316 143.661 183.641 143.37 184.621 142.536C186.49 140.902 186.273 137.98 185.855 135.512C185.438 133.062 185.129 130.159 186.926 128.434C183.623 129.07 180.247 129.723 177.38 131.465C174.513 133.207 172.226 136.293 172.389 139.65C172.48 141.338 173.133 143.134 172.371 144.623C171.536 146.238 169.304 146.873 168.741 148.597C168.088 150.575 170.03 152.39 170.792 154.332C171.518 156.165 171.173 158.216 171.337 160.157C171.5 162.117 172.516 164.331 174.458 164.622L175.311 165.674Z" fill="#FFBE55"/>
<path opacity="0.31" d="M175.311 165.674C176.6 162.39 177.906 158.742 176.69 155.439C176.4 154.64 175.946 153.787 176.219 152.971C176.581 151.864 178.033 151.483 178.505 150.43C179.05 149.269 178.197 147.926 178.414 146.673C178.632 145.403 179.884 144.568 181.1 144.114C182.316 143.661 183.641 143.37 184.621 142.536C186.49 140.902 186.273 137.98 185.855 135.512C185.438 133.062 185.129 130.159 186.926 128.434C183.623 129.07 180.247 129.723 177.38 131.465C174.513 133.207 172.226 136.293 172.389 139.65C172.48 141.338 173.133 143.134 172.371 144.623C171.536 146.238 169.304 146.873 168.741 148.597C168.088 150.575 170.03 152.39 170.792 154.332C171.518 156.165 171.173 158.216 171.337 160.157C171.5 162.117 172.516 164.331 174.458 164.622L175.311 165.674Z" fill="white"/>
<path d="M173.986 161.373C173.95 151.827 175.801 131.846 186.817 128.507" stroke="white" stroke-width="0.75" stroke-miterlimit="10" stroke-linecap="round"/>
<path d="M167.634 164.876C165.674 161.21 163.642 157.127 164.604 153.08C164.84 152.1 165.239 151.047 164.821 150.121C164.259 148.887 162.499 148.615 161.791 147.454C161.01 146.183 161.809 144.477 161.373 143.044C160.938 141.574 159.359 140.793 157.889 140.412C156.419 140.049 154.822 139.904 153.551 139.033C151.138 137.381 150.993 133.915 151.138 130.993C151.283 128.071 151.247 124.623 148.906 122.863C152.862 123.153 156.909 123.462 160.502 125.113C164.096 126.765 167.217 130.068 167.471 134.024C167.598 136.002 167.072 138.198 168.179 139.85C169.377 141.628 172.081 142.064 172.988 144.006C174.023 146.238 172.008 148.615 171.373 150.993C170.792 153.225 171.464 155.584 171.536 157.889C171.609 160.194 170.72 162.934 168.487 163.551L167.634 164.876Z" fill="#FFBE55"/>
<path d="M168.596 159.649C167.326 148.452 162.426 125.313 149.051 122.936" stroke="white" stroke-width="0.75" stroke-miterlimit="10" stroke-linecap="round"/>
<path d="M180.03 186.381H162.789C161.591 186.381 160.611 185.401 160.611 184.204L159.159 159.341C159.159 158.143 160.139 157.163 161.337 157.163H181.481C182.679 157.163 183.659 158.143 183.659 159.341L182.207 184.204C182.207 185.401 181.227 186.381 180.03 186.381Z" fill="#CCE9FF"/>
<path d="M23.6916 107.42L34.8163 105.733L42.3798 155.614L31.2551 157.301L23.6916 107.42Z" fill="#FFBE55"/>
<path d="M29.2501 106.581L34.8124 105.738L42.3759 155.619L36.8136 156.463L29.2501 106.581Z" fill="#FFBE55"/>
<path d="M34.8263 105.786L23.7015 107.473L26.3148 100.777L27.803 97.0018L30.3437 100.178L34.8263 105.786Z" fill="#FFEBC2"/>
<path d="M30.3437 100.178L26.3148 100.777L27.803 97.0018L30.3437 100.178Z" fill="#0E538C"/>
<path d="M43.758 94.3125L54.9648 95.3161L50.465 145.566L39.2582 144.563L43.758 94.3125Z" fill="#FFBE55"/>
<path d="M49.3721 94.8184L54.9755 95.3201L50.4757 145.57L44.8723 145.068L49.3721 94.8184Z" fill="#FFBE55"/>
<path d="M54.9707 95.3685L43.7552 94.3704L47.893 88.4904L50.2341 85.1693L51.94 88.8533L54.9707 95.3685Z" fill="#FFEBC2"/>
<path d="M51.94 88.8533L47.893 88.4904L50.2341 85.1693L51.94 88.8533Z" fill="#0E538C"/>
<path d="M62.3389 186.563H18.13L12.3407 118.144H65.8778L62.3389 186.563Z" fill="#CCE9FF"/>
<path opacity="0.5" d="M39.1093 186.563H62.3389L65.8778 118.144H39.1093V186.563Z" fill="#CCE9FF"/>
<path d="M48.8185 167.253H161.156V182.697H48.8185V167.253Z" fill="#FFEBC2"/>
<path d="M49.2904 167.253V182.697H167.144V183.859C167.144 185.293 165.892 186.454 164.35 186.454H49.7985C46.1507 186.454 43.1926 183.732 43.1926 180.356V170.03C43.1926 166.654 46.1507 163.932 49.7985 163.932H164.35C165.892 163.932 167.144 165.094 167.144 166.527V167.272H49.2904V167.253Z" fill="#FFBE55"/>
<path d="M48.8185 174.131H161.156V182.679H48.8185V174.131Z" fill="#FFEBC2"/>
<path d="M63.337 148.452H154.622V161.881H63.337V148.452Z" fill="#CCE9FF"/>
<path d="M63.337 148.452V161.881H158.07V162.898C158.07 164.15 157.054 165.148 155.82 165.148H63.7363C60.8144 165.148 58.437 162.771 58.437 159.849V150.866C58.437 147.944 60.8144 145.566 63.7363 145.566H155.82C157.054 145.566 158.07 146.583 158.07 147.817V148.47H63.337V148.452Z" fill="#2A94F4"/>
<path d="M102.791 102.737C101.539 101.085 101.43 98.8167 102.61 97.0926C103.553 95.7134 104.189 94.0074 104.116 92.7552C103.971 90.5048 102.573 88.4359 100.668 87.2019C98.1633 85.5685 94.8241 85.3326 92.12 86.603C89.4159 87.8734 87.4559 90.5956 87.1111 93.5537C86.857 95.6771 87.347 98 86.2581 99.8511C85.4596 101.176 83.9896 101.956 82.5378 102.483C81.0678 102.991 79.5252 103.336 78.1822 104.116C76.8393 104.896 75.6959 106.239 75.7141 107.8C75.7322 108.98 76.4037 110.069 76.4763 111.23C76.5852 112.936 75.3874 114.442 74.117 115.567C72.8285 116.693 71.3585 117.673 70.4874 119.143C69.0537 121.574 69.7252 124.859 71.54 127.037C73.3548 129.215 76.077 130.431 78.7993 131.139C86.24 133.099 94.08 131.828 101.757 131.701C104.134 131.665 106.566 131.737 108.871 131.139C111.176 130.54 113.426 129.16 114.388 126.983C115.368 124.805 114.878 122.155 113.571 120.177C112.264 118.199 110.214 116.765 108.054 115.749C106.493 115.005 104.824 114.424 103.553 113.263C102.283 112.101 101.539 110.123 102.392 108.617C102.719 108.036 103.263 107.582 103.571 107.001C104.189 105.876 103.934 104.443 103.245 103.354C103.118 103.172 102.973 102.973 102.791 102.737Z" fill="#0E538C"/>
<path d="M63.337 154.441H154.622V161.881H63.337V154.441Z" fill="#CCE9FF"/>
<path d="M104.533 135.385L115.785 143.37L129.578 171.863H127.037L111.611 146.637C111.611 146.637 106.348 146.819 104.533 145.185C102.719 143.552 92.2833 136.474 92.2833 136.474L104.533 135.385Z" fill="#0B4870"/>
<path d="M84.6248 133.099C82.5741 138.652 84.0259 146.456 90.9222 146.819C97.8185 147.181 99.9963 146.819 99.9963 146.819L113.426 174.041H116.511L105.985 143.552L93.1907 136.474L84.6248 133.099Z" fill="#0E538C"/>
<path d="M95.0963 101.448C96.9111 103.807 101.267 110.341 102.9 117.6C104.533 124.859 109.07 135.385 109.07 135.385H103.807L98.7259 118.144L94.0074 101.993L95.0963 101.448Z" fill="#4EA3FB"/>
<path d="M100.686 91.8115C100.958 96.2578 99.0163 99.3067 96.2396 99.4519C93.463 99.597 91.6481 95.5682 92.483 91.8115C94.4248 88.4722 97.0744 88.2 97.0744 88.2H98.7441L100.686 91.8115Z" fill="#FFE3CA"/>
<path d="M98.8348 89.1619C98.3267 90.7226 97.2015 92.0656 95.7496 92.8278C94.2978 93.59 92.5556 93.7715 90.9767 93.2996L94.933 87.6556H98.3267L101.575 90.2326L101.085 93.1908C99.8148 92.2289 98.8348 89.1619 98.8348 89.1619Z" fill="#0E538C"/>
<path d="M95.4048 98.9255C94.8241 101.176 95.0056 103.535 95.0056 103.898C94.4611 104.624 91.9204 104.443 91.5574 101.902C92.1019 98.6352 93.1907 95.0056 93.1907 95.0056L94.0982 97.0019L95.4048 98.9255Z" fill="#FFE3CA"/>
<path d="M91.9204 99.9781C89.6518 100.722 82.0296 104.17 81.6667 104.896C82.2111 106.893 84.9333 136.474 84.9333 136.474H97.2741C97.2741 136.474 95.6407 120.141 96.5481 119.052C97.4556 117.963 100.359 114.152 99.9963 113.607C99.6333 113.063 95.0237 101.357 95.0237 101.357L91.9204 99.9781Z" fill="#2A94F4"/>
<path d="M81.6667 104.896C79.8881 106.257 72.4111 118.507 74.7704 125.041C77.1296 131.574 84.8426 135.421 84.8426 135.421V131.828C84.8426 131.828 78.5815 126.856 78.9444 123.226C79.3074 119.596 83.663 112.156 83.663 112.156L81.6667 104.896Z" fill="#4EA3FB"/>
<path d="M110.903 138.561H84.1893C83.3544 138.561 82.6648 137.871 82.6648 137.037L81.9389 119.941C81.9389 119.106 82.6285 118.417 83.4633 118.417H111.266C112.101 118.417 112.791 119.106 112.791 119.941L112.428 137.037C112.428 137.871 111.738 138.561 110.903 138.561Z" fill="#FFBE55"/>
<path d="M116.076 174.041C117.872 174.44 120.304 176.418 121.466 177.434C121.701 177.634 121.556 178.033 121.23 178.033C119.36 177.997 115.132 177.797 114.152 176.963C112.881 175.874 113.244 174.059 113.244 174.059H116.076V174.041ZM129.541 171.79C131.139 172.226 133.244 174.077 134.296 175.075C134.532 175.293 134.351 175.674 134.042 175.656C132.282 175.529 128.507 175.184 127.654 174.367C126.529 173.315 126.946 171.663 126.946 171.663L129.541 171.79Z" fill="#1A87D8"/>
<path d="M97.4556 131.211C98.959 131.211 100.178 129.992 100.178 128.489C100.178 126.985 98.959 125.767 97.4556 125.767C95.9521 125.767 94.7333 126.985 94.7333 128.489C94.7333 129.992 95.9521 131.211 97.4556 131.211Z" fill="white"/>
<path d="M73.5 167.144L70.0518 165.148L66.6037 167.144V154.441H73.5V167.144ZM126.964 91.9204C126.964 92.2652 126.837 92.5737 126.62 92.8278C126.837 93.0637 126.964 93.3904 126.964 93.7352V94.8604C126.964 95.0963 126.892 95.3322 126.783 95.5319C126.892 95.7315 126.964 95.9674 126.964 96.2033V97.3285C126.964 98.0726 126.366 98.6715 125.621 98.6715H113.934C113.19 98.6715 112.591 98.0726 112.591 97.3285V96.1852C112.591 95.9493 112.664 95.7133 112.773 95.5137C112.664 95.3141 112.591 95.0781 112.591 94.8422V93.717C112.591 93.3722 112.718 93.0637 112.936 92.8096C112.718 92.5737 112.591 92.247 112.591 91.9022V90.777C112.591 90.033 113.19 89.4341 113.934 89.4341H125.621C126.366 89.4341 126.964 90.033 126.964 90.777V91.9204ZM136.293 66.4767C136.293 73.0281 132.481 78.6722 126.964 81.3581V87.4559C126.964 87.9096 126.583 88.2907 126.13 88.2907H113.426C112.972 88.2907 112.591 87.9096 112.591 87.4559V81.3581C107.074 78.6904 103.263 73.0281 103.263 66.4767C103.263 57.3481 110.649 49.9619 119.778 49.9619C128.906 49.9619 136.293 57.3663 136.293 66.4767Z" fill="#FFBE55"/>
<path opacity="0.23" d="M125.404 92.9185H114.333M125.404 95.4593H114.333" stroke="#7F7F7F" stroke-width="2" stroke-miterlimit="10" stroke-linecap="round"/>
<path d="M122.609 68.5093C122.409 68.3278 122.119 68.237 121.81 68.2733C121.429 68.3096 121.066 68.5274 120.83 68.8359C120.631 69.1081 120.522 69.4348 120.467 69.7433C120.304 69.6526 120.123 69.5618 119.959 69.453L119.905 69.4167H119.669L119.614 69.453C119.433 69.5618 119.27 69.6526 119.106 69.7433C119.052 69.4348 118.943 69.1081 118.743 68.8359C118.526 68.5274 118.144 68.3096 117.763 68.2733C117.455 68.237 117.183 68.3278 116.965 68.5093C116.693 68.7633 116.602 69.1263 116.693 69.5074C116.838 70.0155 117.255 70.433 117.745 70.5237C118.054 70.5781 118.344 70.56 118.653 70.4874C119.106 76.3855 119.288 82.3563 119.161 88.2544H119.705C119.832 82.3381 119.651 76.3493 119.197 70.4511C119.197 70.3967 119.197 70.3422 119.179 70.2878C119.397 70.197 119.596 70.0881 119.796 69.9611C119.996 70.07 120.195 70.197 120.413 70.2878C120.413 70.3422 120.413 70.3967 120.395 70.4511C119.941 76.3493 119.76 82.3381 119.887 88.2544H120.431C120.304 82.3563 120.486 76.3674 120.939 70.4874C121.23 70.56 121.538 70.5963 121.847 70.5237C122.319 70.433 122.754 70.0155 122.899 69.5074C122.972 69.1263 122.881 68.7633 122.609 68.5093ZM117.836 70.0155C117.564 69.9611 117.291 69.6889 117.201 69.3804C117.164 69.2533 117.146 69.0537 117.31 68.9267C117.4 68.8359 117.527 68.8178 117.618 68.8178H117.691C117.909 68.8359 118.144 68.963 118.29 69.1626C118.453 69.3804 118.544 69.6526 118.58 69.9611C118.326 70.0337 118.09 70.0518 117.836 70.0155ZM122.355 69.3804C122.264 69.6889 122.01 69.9611 121.72 70.0155C121.484 70.07 121.23 70.0337 120.994 69.9611C121.048 69.6526 121.121 69.3804 121.284 69.1626C121.411 68.9811 121.647 68.8541 121.883 68.8178C121.992 68.7996 122.137 68.8178 122.264 68.9267C122.391 69.0537 122.373 69.2533 122.355 69.3804Z" fill="white"/>
<path d="M115.422 52.9926C111.43 54.4445 104.896 59.7074 105.441 68.2371" stroke="white" stroke-width="4" stroke-miterlimit="10" stroke-linecap="round"/>
<path d="M93.5537 82.5741C96.1096 82.5741 98.1815 80.5022 98.1815 77.9463C98.1815 75.3905 96.1096 73.3185 93.5537 73.3185C90.9979 73.3185 88.9259 75.3905 88.9259 77.9463C88.9259 80.5022 90.9979 82.5741 93.5537 82.5741Z" fill="#FFBE55"/>
<path d="M143.098 64.7889C144.251 64.7889 145.185 63.8545 145.185 62.7018C145.185 61.5492 144.251 60.6148 143.098 60.6148C141.946 60.6148 141.011 61.5492 141.011 62.7018C141.011 63.8545 141.946 64.7889 143.098 64.7889Z" fill="#FFBE55"/>
<path d="M136.293 98.9074C138.197 98.9074 139.741 97.3636 139.741 95.4593C139.741 93.5549 138.197 92.0111 136.293 92.0111C134.388 92.0111 132.844 93.5549 132.844 95.4593C132.844 97.3636 134.388 98.9074 136.293 98.9074Z" fill="#FFBE55"/>
<path d="M103.263 50.8148C105.167 50.8148 106.711 49.271 106.711 47.3667C106.711 45.4623 105.167 43.9185 103.263 43.9185C101.359 43.9185 99.8148 45.4623 99.8148 47.3667C99.8148 49.271 101.359 50.8148 103.263 50.8148Z" fill="#FFBE55"/>
<path opacity="0.14" d="M73.5 167.144L70.0518 165.148L66.6037 167.144V154.441H73.5V167.144Z" fill="#0C0C0C"/>
</svg>
